<?xml version="1.0" standalone="no"?>
<!DOCTYPE svg PUBLIC "-//W3C//DTD SVG 20010904//EN"
 "http://www.w3.org/TR/2001/REC-SVG-20010904/DTD/svg10.dtd">
<svg version="1.0" xmlns="http://www.w3.org/2000/svg"
 width="1.000000pt" height="1.000000pt" viewBox="0 0 1.000000 1.000000"
 preserveAspectRatio="xMidYMid meet">
<metadata>
Created by potrace 1.16, written by Peter Selinger 2001-2019
</metadata>
<g transform="translate(0.000000,1.000000) scale(0.000078,-0.000078)"
fill="#000000" stroke="none">
<path d="M6456 11958 c-16 -54 -79 -247 -85 -263 -5 -11 -13 -32 -20 -47 l-11
-28 -169 0 c-239 0 -242 -8 -59 -150 118 -91 156 -133 141 -153 -19 -24 -93
-278 -93 -317 0 -11 6 -20 14 -20 7 0 73 43 145 95 73 52 141 95 152 95 11 0
48 -21 82 -47 34 -26 84 -63 112 -82 27 -19 56 -41 63 -48 15 -15 48 -17 56
-4 3 4 1 21 -4 37 -5 16 -16 58 -25 94 -9 36 -26 102 -37 147 l-21 83 23 20
c13 11 59 48 104 83 185 144 187 151 30 160 -59 4 -136 7 -170 7 -55 0 -66 3
-78 23 -12 19 -44 114 -88 267 -12 42 -26 60 -45 60 -7 0 -15 -6 -17 -12z m37
-80 c7 -31 57 -179 68 -200 5 -10 9 -24 9 -31 0 -7 12 -24 26 -38 23 -21 38
-25 137 -31 62 -4 122 -9 134 -10 l23 -3 -23 -17 c-12 -10 -34 -18 -49 -18
-16 0 -28 -5 -28 -11 0 -7 10 -9 28 -4 26 6 26 5 -8 -20 -19 -14 -39 -31 -45
-38 -5 -7 -39 -34 -75 -61 -36 -27 -57 -46 -47 -43 9 4 17 3 18 -1 3 -27 9
-64 19 -107 6 -27 11 -59 11 -70 0 -11 6 -29 13 -40 22 -35 29 -75 11 -75 -8
0 -15 5 -15 10 0 6 -7 10 -15 10 -8 0 -15 9 -15 19 0 11 -9 23 -20 26 -21 7
-27 39 -10 50 6 3 10 11 10 18 0 6 -6 3 -14 -8 -8 -11 -20 -16 -33 -13 -12 3
-27 2 -34 -2 -8 -5 -23 2 -41 20 -24 24 -34 28 -66 23 -20 -3 -43 -14 -51 -24
-16 -23 -41 -25 -41 -4 0 18 -16 20 -26 3 -4 -6 1 -17 10 -24 23 -16 5 -27
-31 -18 -24 6 -26 5 -15 -8 10 -12 10 -18 -2 -27 -11 -9 -15 -9 -18 1 -4 10
-10 10 -31 1 -25 -12 -27 -11 -27 12 0 16 6 25 16 25 18 0 44 23 44 39 0 15
-9 14 -27 -4 -17 -18 -29 -13 -17 7 4 7 9 21 9 31 1 9 10 23 19 30 15 11 16
17 5 40 -10 21 -10 30 -1 39 7 7 12 15 12 19 0 10 -127 139 -136 139 -21 0
-74 47 -74 66 0 28 38 36 165 35 103 -1 100 -2 140 73 28 53 30 60 13 49 -7
-4 -5 5 5 20 10 16 27 55 37 88 11 33 22 64 25 70 10 16 22 10 28 -13z"/>
<path d="M7981 11663 c-7 -21 -19 -63 -28 -93 -8 -30 -22 -70 -29 -88 -8 -18
-14 -38 -14 -45 1 -17 43 64 45 85 2 23 46 118 55 118 4 0 26 -59 50 -131 51
-155 64 -168 152 -159 56 6 123 -5 147 -24 11 -8 15 -8 18 2 3 6 12 12 21 12
13 0 11 -5 -8 -20 -14 -11 -28 -20 -33 -20 -4 0 -27 -19 -51 -42 -24 -24 -62
-60 -86 -81 -40 -36 -42 -40 -36 -79 7 -42 24 -105 51 -186 13 -38 13 -44 -1
-49 -9 -3 -24 4 -35 16 -11 11 -23 21 -28 21 -4 0 -38 23 -75 50 -37 28 -75
50 -85 50 -23 0 -71 -24 -98 -49 -12 -11 -27 -22 -34 -23 -13 -3 -19 -8 -82
-66 -20 -18 -38 -28 -41 -23 -4 5 -1 11 6 13 6 2 13 21 14 41 2 21 8 46 14 57
5 10 10 34 10 54 0 19 4 37 9 40 5 4 12 25 16 48 7 41 7 42 -55 100 -35 32
-66 58 -69 58 -4 0 -14 8 -23 18 -9 9 -28 28 -42 41 -15 13 -24 26 -22 29 3 2
33 6 68 9 35 2 77 5 95 6 35 3 57 17 27 18 -87 2 -241 -4 -247 -10 -15 -14 4
-36 76 -89 40 -29 90 -68 112 -87 22 -19 43 -35 47 -35 16 0 7 -54 -28 -173
-66 -220 -62 -223 97 -102 63 47 124 88 136 91 16 4 40 -7 88 -43 37 -26 76
-55 88 -63 12 -8 37 -27 55 -42 35 -30 40 -32 59 -20 10 6 7 28 -12 92 -76
256 -74 235 -31 276 20 19 40 34 44 34 5 0 21 13 38 28 16 15 53 45 82 67 51
39 64 61 40 70 -7 3 -79 6 -160 8 -81 1 -152 7 -157 12 -6 6 -32 78 -59 160
-54 162 -71 185 -91 118z"/>
<path d="M5003 11668 c-12 -17 -43 -115 -43 -139 0 -10 -4 -21 -10 -24 -5 -3
-10 -19 -10 -34 0 -15 -4 -31 -9 -36 -5 -6 -14 -27 -20 -47 -7 -20 -20 -40
-31 -43 -10 -3 -85 -6 -166 -7 -196 -1 -204 -14 -73 -113 112 -84 164 -126
167 -135 3 -7 -14 -74 -59 -230 -27 -96 -28 -114 -6 -118 15 -3 97 51 105 70
2 5 8 8 13 8 5 0 40 23 78 50 38 28 75 50 83 50 12 0 118 -72 178 -120 42 -35
102 -62 112 -52 5 5 4 20 -2 38 -6 16 -16 52 -21 79 -5 28 -16 65 -25 83 -8
18 -20 57 -26 86 l-12 53 38 33 c20 18 56 45 79 61 23 15 67 51 97 78 75 71
68 75 -133 81 -97 3 -162 9 -163 15 0 6 -5 21 -11 35 -6 14 -27 79 -48 145
-37 117 -50 145 -65 145 -4 0 -12 -6 -17 -12z m78 -220 c43 -133 59 -147 164
-143 66 3 72 1 98 -27 16 -16 27 -30 25 -31 -1 -1 -14 -8 -26 -15 -28 -16 -40
-9 -23 12 19 22 -4 28 -24 6 -16 -18 -16 -20 0 -36 16 -16 15 -19 -17 -45 -18
-16 -38 -29 -44 -29 -33 0 -44 -111 -13 -131 6 -4 10 -18 7 -33 -3 -14 -1 -23
3 -20 5 3 9 -8 9 -23 0 -16 9 -53 20 -83 24 -67 25 -82 2 -54 -10 12 -35 29
-56 39 -22 10 -41 27 -44 37 -2 10 -8 18 -12 18 -5 0 -15 6 -22 13 -7 7 -27
23 -45 35 -18 13 -30 29 -27 36 3 7 -2 16 -11 19 -12 5 -14 1 -9 -18 5 -20 3
-23 -15 -18 -14 3 -37 -7 -70 -31 -27 -20 -56 -36 -65 -36 -10 0 -14 -4 -11
-10 3 -6 -1 -7 -9 -4 -9 3 -16 10 -16 15 0 5 -4 9 -8 9 -5 0 -9 -14 -10 -31 0
-18 -5 -36 -10 -41 -11 -11 -42 1 -42 17 0 17 25 37 35 27 4 -4 4 4 0 18 -11
33 -8 63 10 116 16 48 20 114 7 114 -4 0 -28 18 -52 40 -24 22 -52 43 -62 46
-10 3 -18 10 -18 15 0 5 -8 13 -17 16 -26 10 -75 61 -65 67 12 7 52 -4 52 -15
0 -5 4 -9 10 -9 5 0 7 6 4 14 -4 11 9 15 63 18 37 2 74 0 80 -5 9 -6 15 -4 19
7 5 13 14 15 35 11 25 -6 29 -3 35 22 4 15 13 37 20 48 7 11 23 52 35 90 12
39 28 75 35 81 8 6 11 14 8 17 -3 3 -3 11 1 18 10 14 21 -12 66 -153z"/>
<path d="M3863 11282 c-6 -4 -15 -21 -18 -37 -4 -17 -18 -63 -31 -103 -13 -40
-24 -78 -24 -85 0 -7 -9 -33 -21 -56 -11 -24 -18 -46 -15 -49 12 -11 -28 -42
-56 -42 -18 0 -28 -5 -28 -15 0 -18 13 -19 56 -3 30 10 62 53 50 66 -3 3 3 21
13 41 31 59 52 127 45 145 -5 12 -2 15 11 10 13 -5 16 -3 13 7 -6 17 9 49 23
49 9 0 26 -36 33 -69 7 -41 30 -100 36 -96 4 3 7 -1 7 -8 -2 -19 32 -120 47
-139 11 -15 33 -18 139 -20 125 -3 126 -3 120 -25 -6 -25 11 -32 21 -8 3 8 12
15 21 15 13 0 13 -3 3 -20 -7 -11 -16 -20 -20 -20 -9 0 -81 -63 -134 -117 -23
-24 -46 -43 -52 -43 -15 0 -25 -36 -17 -61 4 -12 2 -24 -4 -28 -8 -5 -5 -15 9
-31 11 -13 20 -31 20 -41 0 -10 6 -36 14 -56 35 -99 39 -167 6 -128 -7 8 -17
15 -22 15 -5 0 -21 14 -35 30 -13 17 -31 30 -39 30 -8 0 -14 5 -14 10 0 6 -8
10 -19 10 -11 0 -21 9 -24 22 -4 12 -9 19 -13 15 -4 -3 -19 2 -34 13 -29 21
-61 26 -74 13 -4 -5 -11 -8 -14 -8 -14 -1 -92 -55 -92 -64 0 -5 -24 -21 -52
-36 -29 -15 -61 -37 -70 -48 -16 -20 -17 -21 -24 -4 -4 10 -2 28 5 40 6 12 16
45 21 72 13 64 14 68 21 80 4 6 9 28 13 50 4 22 9 48 12 58 4 12 -10 32 -44
65 -60 56 -90 82 -97 82 -3 0 -31 24 -61 54 -64 62 -64 63 56 66 109 3 109 3
114 16 3 8 -36 12 -139 13 -121 2 -143 0 -148 -13 -9 -23 0 -38 41 -69 20 -15
55 -41 77 -57 48 -36 121 -97 152 -127 l22 -21 -20 -69 c-62 -212 -73 -251
-73 -282 -2 -59 2 -58 190 84 92 69 117 85 135 85 9 0 57 -30 108 -67 208
-154 214 -157 219 -113 1 14 -12 72 -29 130 -70 239 -71 250 -23 275 11 6 29
19 41 30 49 46 84 75 91 75 4 0 27 18 52 40 25 22 48 40 51 40 11 0 19 29 13
45 -5 13 -34 15 -174 15 -93 0 -179 4 -192 9 -17 6 -28 24 -41 67 -84 281
-101 318 -134 296z"/>
<path d="M6223 10792 c-44 -86 -77 -166 -88 -213 -22 -93 -31 -109 -55 -109
-11 0 -20 -4 -20 -10 0 -5 4 -10 9 -10 9 0 41 -55 41 -72 0 -4 -11 -8 -24 -8
-14 0 -28 -5 -32 -11 -6 -11 59 -6 137 10 33 7 34 8 40 66 8 84 12 94 82 237
l62 128 121 0 c138 0 125 9 164 -110 30 -90 49 -186 50 -245 0 -27 4 -55 8
-62 7 -12 77 -18 288 -28 l121 -6 17 45 c19 51 96 171 165 259 39 50 49 58 71
53 14 -3 49 -9 77 -15 29 -5 65 -16 80 -23 28 -13 28 -15 31 -118 2 -67 -3
-143 -14 -211 -22 -135 -20 -139 113 -192 162 -64 197 -77 210 -77 7 0 68 55
136 123 195 195 211 204 272 169 79 -45 125 -86 125 -111 0 -41 -20 -154 -29
-166 -5 -5 -12 -26 -16 -45 -4 -19 -20 -63 -36 -97 -39 -84 -38 -104 9 -137
40 -28 67 -33 77 -15 4 5 19 8 33 5 15 -3 40 0 57 7 l29 13 -24 21 c-14 12
-36 30 -49 40 l-23 19 26 52 c14 28 26 62 26 76 0 14 5 28 10 31 6 3 10 14 10
24 0 10 7 32 15 47 8 16 15 37 15 47 0 11 7 43 16 73 14 51 14 55 -3 77 -67
85 -244 197 -314 200 -51 2 -145 -63 -286 -197 l-111 -106 -72 29 c-39 15 -75
32 -80 37 -4 5 -4 34 1 64 5 30 11 125 14 209 4 127 2 159 -10 178 -19 28 -62
51 -118 62 -23 5 -67 16 -97 24 -90 25 -145 30 -170 17 -23 -12 -34 -23 -95
-91 -36 -41 -122 -165 -150 -217 l-20 -37 -76 -3 c-104 -4 -124 5 -133 60 -11
73 -70 263 -88 283 -4 5 -8 17 -8 27 0 10 -7 30 -16 43 l-16 25 -208 0 -207 0
-70 -138z"/>
<path d="M5512 10810 c-117 -29 -152 -48 -152 -84 0 -17 7 -21 37 -23 21 -1
41 3 46 10 5 7 6 3 2 -10 -3 -12 -1 -24 5 -28 6 -4 9 -1 8 6 -2 7 7 17 18 24
12 6 28 16 35 22 15 12 69 13 69 1 0 -5 -9 -8 -20 -8 -23 0 -70 -28 -70 -41 0
-5 7 -9 15 -9 8 0 15 4 15 9 0 4 20 11 45 14 24 4 54 12 65 19 16 10 25 9 52
-7 42 -24 97 -85 125 -137 19 -36 22 -37 25 -16 3 21 8 23 50 21 l47 -2 -12
27 c-41 95 -125 200 -184 231 -33 17 -97 12 -221 -19z"/>
<path d="M8605 10822 c-13 -14 -3 -41 23 -58 15 -9 63 -46 107 -82 44 -35 88
-70 98 -78 25 -20 22 -47 -23 -200 -22 -75 -40 -145 -40 -156 0 -25 22 -23 56
7 16 14 32 25 36 25 8 0 71 47 143 106 23 19 46 34 52 34 10 0 80 -48 200
-137 109 -81 116 -74 72 69 -44 146 -59 201 -59 219 0 8 34 42 75 74 41 33 75
63 75 67 0 4 6 8 13 8 6 0 31 17 55 38 67 57 55 66 -88 70 -104 3 -120 1 -120
-12 0 -17 27 -20 133 -16 46 1 48 0 45 -22 -2 -13 -10 -23 -18 -23 -8 0 -46
-30 -85 -67 -38 -37 -75 -68 -82 -68 -35 0 -23 -113 28 -274 11 -33 17 -61 14
-64 -5 -5 -14 1 -140 92 -49 36 -99 66 -109 66 -20 0 -205 -119 -227 -146 -6
-8 -18 -14 -26 -14 -15 0 -12 22 12 70 7 14 10 31 8 38 -3 7 2 28 11 46 9 19
16 41 16 50 0 8 5 26 11 40 24 51 9 69 -165 206 -54 43 -70 59 -65 64 3 3 42
7 88 10 45 2 85 7 88 10 7 7 12 7 -109 11 -53 1 -100 0 -103 -3z"/>
<path d="M2660 10659 c-273 -30 -493 -200 -569 -439 -36 -115 -44 -174 -38
-272 15 -213 93 -374 242 -495 57 -46 112 -76 204 -109 35 -13 76 -34 90 -48
47 -43 85 -56 168 -56 80 0 115 13 168 60 11 10 45 25 75 35 103 33 213 97
272 159 131 136 184 259 195 451 25 450 -333 767 -807 714z m258 -61 c6 -6 12
-8 12 -5 0 3 24 -1 53 -10 64 -18 171 -74 212 -109 17 -14 35 -29 41 -32 6 -4
32 -35 58 -69 97 -129 132 -249 123 -432 -3 -64 -10 -132 -17 -151 -14 -42
-43 -103 -51 -110 -3 -3 -13 -19 -22 -36 -17 -32 -46 -51 -56 -37 -3 4 -16 14
-28 21 -20 10 -24 9 -35 -8 -31 -49 -45 1 -18 59 25 50 24 118 -2 134 -11 8
-45 7 -115 -4 -136 -20 -558 -18 -668 4 -71 13 -83 13 -104 0 -20 -13 -23 -21
-18 -58 2 -24 14 -62 25 -84 24 -46 22 -61 -13 -77 -19 -9 -25 -9 -29 3 -4 9
0 13 11 11 10 -2 19 5 21 14 2 13 -1 16 -12 12 -9 -3 -24 0 -33 7 -15 12 -16
12 -10 -4 15 -41 -7 -35 -43 11 -27 33 -49 79 -69 140 -26 81 -29 101 -26 199
4 132 16 184 68 292 90 186 274 307 502 329 96 10 225 4 243 -10z"/>
<path d="M2355 10195 c-14 -13 -25 -33 -25 -43 0 -20 39 -62 58 -62 15 0 81
-33 82 -42 0 -3 -23 -9 -52 -13 -52 -7 -98 -39 -98 -67 0 -23 28 -55 54 -62
26 -6 286 82 323 110 16 11 16 14 3 28 -27 27 -282 176 -302 176 -10 0 -30
-11 -43 -25z"/>
<path d="M2957 10134 c-98 -61 -137 -91 -135 -102 4 -20 256 -120 303 -121 85
-2 103 90 24 118 -18 6 -45 11 -60 11 -49 0 -40 17 24 45 34 14 65 32 69 38
25 39 -11 97 -59 97 -17 0 -81 -34 -166 -86z"/>
<path d="M10120 10623 c-209 -20 -411 -136 -517 -297 -101 -153 -138 -399 -90
-586 22 -82 68 -177 121 -247 26 -35 51 -63 54 -63 4 0 23 -15 43 -34 44 -42
125 -87 209 -117 36 -12 82 -37 102 -55 49 -43 99 -57 191 -52 70 3 81 7 134
44 32 22 72 44 88 48 67 15 213 99 271 155 103 99 139 154 181 280 35 104 43
284 18 395 -27 123 -80 225 -164 318 -71 79 -239 171 -361 199 -46 11 -216 18
-280 12z m303 -72 c85 -23 164 -60 212 -97 17 -13 43 -34 59 -46 40 -33 108
-124 139 -188 105 -218 78 -512 -61 -670 -26 -30 -52 -40 -52 -19 0 6 -7 3
-16 -5 -21 -22 -27 -20 -14 5 18 32 5 33 -20 1 -21 -27 -24 -28 -40 -13 -16
15 -15 19 5 56 21 39 45 118 45 149 0 9 -11 23 -24 31 -21 14 -32 14 -112 0
-182 -32 -598 -29 -727 6 -102 27 -121 -53 -46 -187 34 -61 36 -74 9 -49 -15
14 -20 15 -21 4 0 -10 -2 -11 -6 -1 -6 15 -45 16 -60 1 -15 -15 -81 76 -112
152 -45 114 -54 300 -20 427 11 42 24 81 30 87 5 5 9 15 9 22 0 26 73 128 129
181 88 83 191 136 326 167 87 21 269 14 368 -14z"/>
<path d="M10380 10303 c-14 -2 -50 -21 -80 -41 -137 -93 -156 -289 -38 -402
56 -53 99 -70 178 -70 154 0 260 105 260 258 0 56 -33 142 -69 180 -52 53
-173 90 -251 75z m131 -58 c117 -41 176 -173 125 -281 -29 -61 -69 -99 -125
-119 -81 -28 -151 -12 -215 50 -74 71 -85 179 -28 263 61 91 144 121 243 87z"/>
<path d="M10386 10119 c-22 -17 -26 -28 -26 -70 0 -40 5 -55 25 -74 46 -47
136 -28 156 32 13 41 5 80 -23 111 -28 29 -95 30 -132 1z"/>
<path d="M9766 10168 c-21 -16 -19 -47 4 -59 8 -4 38 -18 65 -30 l50 -21 -45
-20 c-57 -24 -100 -65 -100 -94 0 -35 31 -37 94 -8 52 23 67 26 148 23 78 -3
92 -2 102 14 44 69 -247 247 -318 195z"/>
<path d="M4655 10430 c-77 -44 -148 -90 -159 -102 -17 -21 -18 -35 -12 -163 4
-92 14 -165 27 -214 13 -47 18 -80 12 -92 -10 -22 -104 -99 -120 -99 -7 0 -36
15 -65 34 -68 43 -229 126 -245 126 -7 0 -13 4 -13 9 0 11 -75 27 -110 23 -17
-2 -64 -43 -143 -125 -131 -135 -137 -143 -137 -185 0 -55 98 -261 159 -335
26 -31 38 -54 34 -65 -9 -25 -67 -103 -101 -135 l-29 -28 -74 25 c-41 13 -128
43 -193 66 -154 53 -175 49 -223 -40 -10 -19 -30 -53 -44 -75 -14 -22 -41 -68
-59 -103 -17 -34 -36 -65 -41 -68 -5 -3 -9 -21 -9 -40 0 -27 10 -47 41 -85 38
-44 43 -47 55 -31 12 16 14 16 28 -3 14 -17 17 -18 26 -5 18 28 11 48 -20 55
-29 6 -42 23 -17 22 38 -1 44 3 39 29 -5 27 12 63 81 172 22 34 45 62 52 62 6
0 36 -7 66 -16 156 -47 191 -53 206 -38 8 8 26 14 40 14 21 0 23 3 14 14 -14
16 8 29 28 16 7 -4 26 -2 43 4 25 9 32 8 42 -7 20 -26 29 -22 82 36 95 103
114 134 114 188 0 29 -8 43 -46 79 -30 29 -60 74 -90 134 -70 144 -70 139 28
234 52 52 91 82 105 82 29 0 145 -61 262 -138 59 -39 105 -62 123 -62 21 0 59
26 150 103 142 119 147 131 105 227 -40 91 -47 122 -47 222 0 106 1 108 80
151 25 13 59 32 77 43 27 16 35 17 56 5 32 -17 159 -140 226 -218 60 -71 83
-78 159 -43 56 25 55 41 -3 33 -42 -5 -45 -4 -55 22 -6 16 -8 35 -6 42 3 7 -3
22 -14 33 -25 25 -26 25 -33 0 -4 -14 -11 -18 -24 -14 -13 4 -10 -2 10 -20 29
-27 33 -36 17 -36 -12 0 -55 37 -55 48 -1 14 -24 47 -25 35 0 -23 -18 -14 -37
17 -9 17 -23 30 -30 30 -16 0 -17 17 0 35 33 38 35 42 25 60 -22 39 -144 134
-173 135 -11 0 -83 -36 -160 -80z"/>
<path d="M6496 10278 c-9 -28 -13 -274 -5 -296 7 -18 15 -23 37 -20 l27 3 0
160 0 160 -28 3 c-16 2 -29 -2 -31 -10z"/>
<path d="M6655 10274 c-4 -11 -11 -57 -15 -104 -5 -47 -11 -115 -15 -151 l-8
-67 69 -10 c143 -22 171 -23 184 -7 21 25 4 43 -47 50 -134 17 -124 13 -121
53 l3 37 79 0 c64 0 81 3 90 17 16 25 -3 39 -61 45 -88 8 -93 10 -93 45 l0 31
78 -6 c84 -7 106 0 100 29 -3 15 -18 21 -78 30 -41 6 -93 15 -116 19 -35 6
-42 4 -49 -11z"/>
<path d="M7005 10220 c-7 -11 -60 -219 -69 -271 -6 -32 -4 -37 16 -42 32 -9
45 9 59 83 20 106 32 106 64 3 32 -102 49 -133 73 -133 29 0 44 16 52 56 4 22
20 85 35 142 21 82 24 106 15 117 -33 40 -61 3 -86 -110 -5 -22 -13 -40 -19
-40 -5 0 -23 41 -40 90 -16 50 -34 96 -38 103 -10 14 -53 16 -62 2z"/>
<path d="M7380 10107 c-53 -28 -91 -92 -97 -165 -4 -39 0 -54 26 -94 24 -38
38 -49 72 -58 51 -14 98 -6 133 21 30 24 33 41 10 60 -14 11 -21 10 -46 -4
-78 -45 -136 -7 -124 81 7 52 30 90 69 112 34 19 75 1 90 -41 18 -46 77 -53
77 -9 0 37 -24 70 -64 90 -68 33 -96 34 -146 7z"/>
<path d="M5370 10034 c0 -11 11 -47 24 -81 13 -33 30 -84 37 -113 15 -57 32
-71 56 -47 14 14 14 20 -1 66 -23 70 -21 77 22 94 31 13 34 16 18 23 -12 5
-21 2 -28 -9 -5 -10 -19 -17 -32 -17 -17 0 -22 6 -22 22 1 13 -8 27 -22 34
-12 6 -29 20 -37 30 -14 18 -14 18 -15 -2z"/>
<path d="M5140 9994 c-121 -31 -160 -152 -86 -265 27 -41 90 -78 132 -79 31 0
117 47 138 76 32 45 33 108 1 172 -46 96 -93 120 -185 96z m77 -64 c97 -59 79
-200 -26 -200 -46 0 -73 27 -92 90 -16 52 -5 87 34 110 40 25 44 25 84 0z"/>
<path d="M7645 9877 c-38 -74 -66 -140 -63 -149 4 -8 49 -37 102 -64 77 -39
100 -47 114 -38 30 20 18 37 -50 74 -83 44 -81 42 -73 80 10 44 25 46 82 11
53 -33 82 -38 100 -20 19 19 3 39 -51 63 -65 29 -81 47 -66 75 6 12 14 21 18
21 4 0 40 -14 80 -32 67 -30 74 -31 89 -15 16 15 15 18 -2 37 -10 11 -22 20
-26 20 -5 0 -41 16 -80 35 -40 19 -80 35 -89 35 -11 0 -39 -43 -85 -133z"/>
<path d="M8920 9933 c-14 -2 -29 -9 -35 -15 -7 -7 0 -8 23 -3 35 7 44 -7 15
-24 -12 -6 -26 -5 -44 4 -21 11 -34 12 -67 2 -23 -7 -47 -18 -54 -26 -11 -10
-6 -11 27 -6 22 4 48 9 57 11 16 5 16 2 3 -37 -8 -23 -15 -43 -15 -44 0 -2 17
2 38 7 20 6 60 13 87 15 49 4 52 3 100 -44 28 -27 61 -72 74 -101 l24 -51 -22
-53 c-21 -51 -75 -142 -135 -227 -36 -52 -36 -86 1 -142 15 -23 37 -58 48 -78
11 -19 39 -55 62 -80 41 -43 44 -44 89 -37 26 3 52 10 58 14 51 38 271 90 322
76 35 -10 124 -151 124 -197 0 -33 -66 -127 -107 -154 -13 -9 -23 -24 -23 -34
0 -11 -6 -22 -14 -25 -8 -3 -19 -19 -25 -36 -9 -26 -8 -35 6 -50 15 -17 17
-17 36 -1 14 13 21 14 24 6 7 -20 65 38 60 59 -4 12 1 18 12 18 17 0 124 101
157 148 42 60 -40 264 -152 376 -29 28 -30 28 -114 23 -98 -7 -194 -27 -286
-62 -35 -13 -70 -22 -77 -19 -17 7 -87 109 -87 127 0 8 16 34 35 58 19 24 35
48 35 52 0 5 8 21 18 35 34 51 82 175 82 213 0 70 -82 187 -187 268 -33 25
-55 33 -95 36 -29 2 -64 1 -78 -2z"/>
<path d="M6273 9846 c-67 -6 -125 -14 -129 -18 -4 -5 -28 -8 -52 -8 -28 0 -52
-6 -63 -16 -12 -10 -36 -16 -70 -16 -50 1 -156 -19 -177 -32 -5 -3 -38 -12
-73 -20 -35 -8 -95 -26 -134 -41 -38 -14 -86 -31 -105 -37 -90 -27 -405 -198
-520 -282 -72 -54 -183 -146 -245 -205 -27 -26 -81 -74 -118 -106 -72 -62
-160 -164 -246 -284 -57 -79 -73 -110 -52 -96 8 4 17 2 22 -6 6 -11 11 -11 21
-1 19 19 41 15 34 -5 -5 -13 0 -11 21 7 15 14 31 30 35 35 4 6 26 30 50 55 24
25 79 86 123 135 146 165 209 219 433 372 43 29 111 72 152 95 41 24 89 51
105 61 51 30 266 131 330 154 75 27 200 65 245 73 25 5 77 16 115 24 39 9 97
19 130 22 33 3 76 10 96 15 92 23 585 6 759 -26 167 -31 361 -82 435 -115 22
-10 54 -21 70 -25 17 -4 37 -12 45 -19 8 -7 46 -25 85 -41 105 -44 235 -120
440 -258 140 -95 388 -331 495 -472 29 -38 67 -83 85 -100 17 -16 42 -52 55
-79 14 -26 35 -56 47 -66 12 -9 25 -29 29 -44 7 -28 31 -46 52 -39 15 6 16
-19 0 -35 -9 -9 -9 -12 0 -12 7 0 12 -10 12 -22 0 -13 11 -43 24 -68 80 -154
72 -134 139 -360 65 -216 97 -368 119 -565 32 -292 -18 -762 -109 -1020 -14
-38 -29 -85 -33 -103 -19 -78 -96 -242 -174 -372 -134 -222 -185 -293 -332
-459 -147 -165 -298 -304 -432 -396 -26 -17 -90 -61 -143 -97 -53 -37 -114
-75 -135 -86 -22 -11 -79 -41 -127 -66 -49 -25 -94 -46 -101 -46 -7 0 -32 -9
-55 -21 -62 -30 -176 -66 -331 -105 -179 -45 -616 -81 -832 -69 -72 4 -108 2
-108 -5 0 -5 -9 -10 -19 -10 -11 0 -23 -9 -27 -22 -6 -19 -7 -19 -16 -4 -5 9
-6 25 -3 36 7 23 -20 40 -65 40 -17 0 -52 6 -78 14 -47 14 -154 42 -202 52
-14 3 -34 9 -45 14 -11 5 -72 27 -135 50 -336 123 -629 312 -904 584 -154 152
-218 225 -287 326 -24 36 -52 74 -62 85 -10 11 -27 37 -38 57 -10 20 -29 52
-42 71 -13 19 -46 81 -74 138 -127 257 -156 335 -209 554 -45 184 -54 281 -60
598 -5 219 -3 284 11 360 9 50 20 119 26 152 5 33 14 74 18 90 5 17 14 57 21
90 7 33 18 76 25 95 7 19 30 82 51 140 55 157 172 406 217 462 28 36 29 58 2
58 -7 0 -15 6 -18 13 -3 8 -11 6 -28 -9 -13 -12 -36 -24 -50 -27 -17 -5 -32
-21 -49 -54 -12 -26 -29 -55 -36 -63 -23 -27 -64 -110 -64 -130 0 -10 -5 -22
-11 -26 -17 -10 -61 -117 -98 -234 -93 -296 -103 -336 -127 -510 -59 -419 -28
-756 111 -1220 9 -30 21 -72 26 -93 5 -20 18 -54 29 -75 11 -20 20 -42 20 -49
0 -20 151 -317 187 -368 11 -16 29 -44 39 -61 55 -90 125 -189 193 -269 79
-94 255 -272 311 -315 18 -14 42 -33 54 -44 84 -74 257 -191 416 -280 62 -35
83 -46 210 -103 233 -106 537 -187 750 -198 47 -3 114 -10 150 -17 118 -21
473 -13 555 12 17 5 55 11 85 14 67 6 181 30 241 50 24 9 55 16 69 16 14 0 48
12 75 25 28 14 62 25 77 25 15 0 29 4 32 9 3 4 34 18 68 31 82 30 364 166 373
179 3 6 13 11 22 11 21 0 168 99 302 204 183 142 382 353 519 548 131 187 304
538 366 743 14 50 33 110 40 135 41 131 71 294 84 445 20 236 -4 654 -47 830
-6 22 -14 58 -19 80 -5 22 -14 56 -20 75 -6 19 -18 58 -26 85 -21 71 -57 168
-67 180 -12 16 -68 125 -64 125 2 0 -1 15 -7 33 -18 50 -49 87 -75 87 -16 0
-23 6 -23 20 0 23 -67 94 -73 77 -2 -8 -10 -6 -21 6 -17 17 -13 43 5 32 5 -4
9 -2 9 4 0 5 -4 13 -10 16 -5 3 -10 17 -10 31 0 13 5 24 10 24 19 0 10 27 -20
55 -16 16 -30 36 -30 44 0 13 -44 87 -61 101 -3 3 -25 32 -49 65 -24 33 -107
123 -184 200 -133 132 -159 156 -251 230 -20 17 -51 42 -68 56 -57 46 -279
189 -294 189 -2 0 -45 23 -95 50 -93 52 -239 114 -293 126 -16 3 -64 19 -105
34 -41 16 -95 33 -120 39 -232 54 -315 69 -450 81 -140 12 -314 11 -477 -4z"/>
<path d="M4653 9718 c-48 -35 -83 -67 -83 -77 0 -29 170 -251 193 -251 10 0
38 13 61 28 141 97 140 96 125 124 -14 27 -31 22 -98 -27 -68 -50 -78 -53 -97
-27 -21 27 -16 50 14 69 15 10 29 20 32 23 3 3 17 13 33 23 31 20 33 29 11 51
-21 22 -25 21 -84 -20 -97 -67 -122 -18 -27 54 44 33 57 50 55 66 -6 40 -47
29 -135 -36z"/>
<path d="M8175 9718 c-79 -43 -245 -164 -243 -176 6 -31 35 -38 73 -18 34 19
35 19 82 -6 47 -24 48 -25 51 -75 2 -29 9 -57 17 -63 27 -23 31 -14 79 176 29
112 32 144 14 162 -15 15 -46 15 -73 0z"/>
<path d="M4410 9530 c-92 -77 -103 -90 -94 -114 8 -22 37 -20 59 4 10 11 23
20 30 20 13 0 66 -55 128 -133 26 -32 46 -47 62 -47 18 0 35 16 35 34 0 1 -18
22 -41 46 -23 25 -52 61 -65 82 -13 20 -28 39 -34 43 -18 11 -11 38 17 67 22
23 25 32 17 45 -6 9 -15 18 -20 20 -5 2 -47 -29 -94 -67z"/>
<path d="M4217 9353 c-16 -16 -2 -37 78 -119 47 -48 85 -95 85 -106 0 -28 -45
-68 -76 -68 -21 0 -44 18 -102 80 -78 83 -103 95 -126 57 -9 -14 -3 -24 37
-60 144 -128 165 -141 208 -132 39 9 89 51 105 91 24 56 8 90 -80 181 -75 77
-108 97 -129 76z"/>
<path d="M8668 9283 c-29 -27 -65 -57 -79 -68 -14 -11 -28 -28 -32 -38 -3 -9
-18 -22 -31 -28 -14 -7 -27 -18 -30 -25 -6 -15 73 -104 92 -104 7 0 12 -3 12
-8 0 -15 82 -44 93 -33 6 6 19 11 29 11 29 0 115 90 126 133 13 47 4 73 -51
140 -61 74 -68 75 -129 20z m96 -74 c34 -40 33 -78 -1 -117 -30 -33 -90 -72
-110 -72 -7 0 -31 16 -53 36 l-40 36 18 30 c9 16 31 38 47 48 17 10 41 30 54
44 32 34 54 33 85 -5z"/>
<path d="M7105 9313 c-66 -15 -153 -49 -196 -79 -28 -19 -53 -34 -56 -34 -12
0 -111 -87 -152 -135 -127 -145 -165 -185 -176 -185 -7 0 -28 19 -48 43 -76
93 -246 256 -312 300 -91 61 -173 87 -279 87 -198 0 -366 -92 -484 -266 -91
-136 -108 -226 -87 -481 8 -97 12 -180 9 -185 -3 -4 0 -8 5 -8 13 0 9 -36 -6
-51 -6 -6 -9 -18 -5 -27 3 -9 -4 -6 -18 8 -19 19 -21 25 -9 34 22 17 23 46 2
46 -10 1 -85 3 -168 6 -132 5 -161 3 -240 -16 -116 -28 -192 -53 -241 -78
-113 -58 -252 -259 -285 -413 -33 -155 64 -418 206 -555 71 -68 235 -204 248
-204 4 0 7 -11 7 -24 0 -17 -18 -40 -61 -77 -150 -132 -328 -338 -329 -381 0
-9 -4 -19 -9 -22 -5 -4 -22 -39 -37 -79 -26 -65 -28 -83 -27 -192 0 -109 3
-127 31 -198 85 -216 226 -329 484 -387 82 -19 364 2 390 28 11 11 10 12 -5 6
-11 -4 -22 -1 -30 10 -11 15 -19 15 -95 0 -86 -16 -117 -16 -113 1 3 17 -91
24 -121 9 -17 -9 -35 -11 -49 -5 -22 8 -22 8 6 15 l29 7 -39 18 c-29 13 -44
15 -54 7 -10 -7 -16 -6 -25 4 -6 8 -30 28 -53 44 -53 35 -55 51 -7 43 33 -6
35 -5 18 8 -11 8 -28 15 -38 15 -24 0 -121 73 -137 101 -21 41 -50 135 -60
199 -20 132 28 298 132 450 39 58 176 204 266 284 32 29 32 29 72 12 39 -15
41 -15 41 2 0 9 10 23 21 30 l21 14 -21 15 c-12 8 -21 20 -19 27 9 36 427 386
461 386 10 0 21 -32 35 -97 21 -97 69 -206 96 -216 8 -3 11 -16 8 -36 -3 -26
-1 -30 12 -25 12 5 16 0 16 -19 0 -16 7 -26 20 -30 24 -6 24 -6 5 40 -20 47
-19 71 5 121 11 22 20 45 20 50 0 10 46 115 86 195 13 27 24 56 24 64 0 8 8
27 19 41 10 15 22 38 26 52 4 14 23 57 41 97 33 69 91 133 122 133 14 0 74 29
82 39 3 4 48 28 100 54 76 37 106 47 147 47 30 0 55 -5 62 -13 6 -8 30 -19 53
-26 24 -7 66 -21 93 -32 28 -10 61 -19 74 -19 25 0 110 -49 111 -64 0 -4 -12
-5 -27 -2 -90 22 -117 25 -208 26 -67 0 -116 -5 -150 -16 -98 -33 -154 -56
-166 -70 -6 -8 -17 -14 -25 -14 -21 0 -151 -117 -199 -180 -68 -88 -121 -213
-136 -318 -24 -165 7 -332 83 -454 18 -29 42 -70 52 -91 11 -21 45 -59 75 -85
31 -25 58 -49 61 -52 14 -15 111 -79 141 -93 94 -43 133 -51 264 -51 111 -1
139 2 194 22 178 64 239 100 329 191 63 65 114 140 132 196 7 22 16 45 20 50
30 40 56 275 27 246 -18 -18 -37 -13 -37 10 0 12 8 23 20 26 11 3 20 9 20 13
0 5 -9 6 -20 3 -16 -4 -20 0 -20 21 0 15 -4 25 -8 22 -5 -3 -10 -51 -11 -107
-3 -130 -23 -192 -65 -197 -16 -2 -39 1 -50 6 -64 30 -211 63 -373 84 -92 12
-98 19 -60 71 93 126 111 234 57 342 -16 33 -51 93 -77 134 -42 67 -47 81 -51
148 l-5 75 89 -7 c56 -5 103 -15 127 -27 37 -18 41 -18 73 -3 19 9 34 18 34
21 0 3 -21 15 -47 27 l-48 22 38 3 c22 2 45 -3 54 -10 13 -10 17 -10 20 0 3 6
11 12 19 12 8 0 14 7 14 16 0 13 5 15 23 9 12 -5 41 -8 64 -7 57 1 74 -25 43
-67 -26 -37 -26 -38 10 -46 17 -4 30 -12 30 -19 0 -6 16 -18 36 -25 29 -10 40
-23 64 -74 16 -34 32 -71 35 -82 4 -12 9 -15 13 -9 9 14 80 25 87 15 10 -17
-34 -44 -59 -37 -25 6 -25 6 -11 -26 9 -22 19 -32 31 -30 9 2 27 1 41 -3 18
-4 22 -9 15 -22 -7 -11 -3 -26 10 -50 19 -32 19 -33 1 -33 -10 0 -24 5 -31 12
-9 9 -11 6 -7 -11 5 -29 24 -53 36 -45 13 8 11 -10 -3 -25 -11 -11 -10 -12 0
-6 8 4 21 -1 33 -14 24 -26 24 -27 -3 -35 -22 -5 -22 -6 -4 -19 13 -10 15 -16
8 -21 -7 -4 -12 -11 -12 -17 0 -14 26 -11 39 5 8 10 23 13 47 9 20 -3 40 -1
49 7 8 7 15 9 15 5 0 -5 9 0 20 10 11 10 20 26 20 37 0 10 5 18 10 18 6 0 10
11 10 25 0 37 41 95 66 95 19 0 62 -29 168 -112 15 -13 54 -40 85 -61 81 -56
82 -62 27 -114 -25 -25 -46 -49 -46 -54 0 -5 -4 -9 -10 -9 -14 0 -128 -90
-134 -106 -3 -8 -12 -14 -21 -14 -8 0 -15 -4 -15 -10 0 -14 -88 -63 -103 -57
-7 3 -19 24 -26 48 -6 24 -19 65 -26 90 -8 26 -15 53 -15 62 0 16 -41 27 -105
27 l-42 0 -17 -54 c-10 -30 -30 -74 -45 -98 -16 -25 -37 -62 -46 -84 -74 -162
-126 -264 -148 -290 -29 -34 -119 -85 -302 -169 -115 -53 -111 -52 -214 -86
-102 -33 -136 -34 -208 -3 -21 9 -47 20 -58 24 -11 4 -94 44 -185 89 -91 44
-170 81 -175 81 -19 0 -55 44 -85 104 -17 32 -30 63 -30 68 0 6 -13 37 -30 70
-16 32 -30 63 -30 69 0 5 -9 28 -20 51 -10 22 -26 63 -34 92 -21 68 -27 76
-54 69 -16 -4 -22 -13 -22 -34 0 -16 5 -29 10 -29 6 0 10 -7 10 -16 0 -8 5
-12 10 -9 6 3 10 -1 10 -10 0 -9 4 -14 9 -10 6 3 15 -3 21 -14 7 -13 7 -22 0
-26 -5 -3 -10 1 -10 10 0 9 -4 13 -10 10 -15 -9 -12 -39 9 -82 10 -21 24 -54
30 -73 11 -31 17 -50 32 -109 6 -24 -31 -25 -62 -2 -15 12 -37 21 -49 21 -19
0 -20 -1 -5 -24 13 -19 13 -25 3 -30 -10 -5 -10 -7 0 -12 7 -3 18 -11 25 -18
7 -7 35 -25 62 -41 94 -52 101 -61 175 -208 39 -78 76 -149 82 -159 14 -20 -1
-43 -35 -51 -12 -3 -74 -17 -137 -32 -172 -40 -340 -76 -382 -82 -47 -6 -50
-23 -5 -24 17 0 26 -3 19 -6 -6 -2 -10 -9 -6 -14 3 -5 2 -9 -3 -8 -27 5 -35
-2 -29 -26 7 -27 -8 -34 -21 -10 -7 11 -13 6 -27 -23 -10 -20 -22 -45 -27 -54
-5 -10 -9 -25 -9 -33 0 -8 -7 -15 -15 -15 -18 0 -19 -12 -15 -183 2 -105 7
-140 25 -192 58 -160 166 -275 328 -349 86 -40 163 -50 272 -36 133 17 203 49
311 145 12 11 29 26 38 33 9 7 14 17 11 23 -12 18 -36 9 -46 -18 -8 -20 -13
-24 -17 -13 -3 8 -10 18 -16 22 -7 5 -7 14 2 30 6 13 12 34 14 48 2 16 9 25
20 25 19 0 21 9 12 38 -4 12 2 25 17 38 12 10 20 21 18 24 -3 2 -32 -23 -64
-57 -115 -118 -134 -133 -198 -166 -83 -42 -173 -60 -257 -53 -53 5 -76 13
-123 45 -150 100 -268 321 -268 501 0 45 -4 87 -9 95 -12 20 26 60 56 60 12 0
51 9 86 20 34 11 97 25 138 31 79 10 168 33 313 80 48 15 95 25 105 22 23 -9
47 -39 74 -90 12 -24 25 -43 30 -43 4 0 8 -5 8 -11 0 -14 95 -161 125 -193 32
-35 97 -117 94 -119 -2 -2 -16 -8 -31 -15 -43 -18 -33 -28 27 -29 52 -1 56 0
71 29 15 28 16 29 34 13 10 -9 21 -27 24 -40 6 -25 46 -42 46 -19 0 8 -4 14
-10 14 -5 0 -10 7 -10 15 0 35 274 419 358 502 39 39 58 40 143 12 35 -12 91
-25 124 -29 33 -5 107 -18 165 -29 58 -11 128 -21 157 -21 65 0 67 -3 81 -140
20 -186 21 -218 6 -307 -17 -106 -52 -180 -119 -249 -90 -94 -175 -127 -307
-121 -115 5 -178 19 -235 52 -32 19 -43 22 -43 12 0 -8 6 -20 14 -27 19 -15 9
-40 -15 -40 -32 0 -21 -16 24 -35 74 -31 81 -33 150 -49 80 -19 147 -19 242 1
92 19 118 29 195 79 59 37 170 146 170 167 0 5 9 21 19 36 28 39 56 125 71
219 11 65 11 111 3 219 -6 76 -8 142 -3 146 4 5 110 10 236 11 242 3 255 5
377 59 88 40 140 82 191 156 50 73 96 184 96 231 0 16 5 61 12 99 15 91 3 160
-50 272 -32 68 -58 104 -135 184 -52 55 -143 136 -201 179 -58 44 -106 83
-106 86 0 4 40 46 89 92 109 105 246 265 280 328 96 181 104 207 104 360 1
134 -8 179 -50 265 -56 116 -73 139 -125 177 l-28 19 -10 -25 c-5 -14 -14 -26
-20 -26 -6 0 -8 -4 -5 -10 3 -5 16 -10 29 -10 30 0 39 -10 23 -28 -9 -12 -9
-16 1 -19 6 -3 12 -12 12 -22 0 -9 4 -21 8 -26 4 -6 16 -34 26 -64 16 -45 18
-73 13 -175 -6 -133 -18 -180 -77 -298 -61 -122 -324 -435 -381 -453 -12 -4
-39 10 -81 42 -35 26 -70 53 -79 58 -56 36 -117 77 -134 91 -11 9 -39 24 -61
34 -23 10 -45 23 -48 29 -11 17 -26 13 -26 -6 0 -14 -3 -13 -16 6 -14 19 -22
22 -53 16 -20 -4 -41 -11 -46 -15 -6 -5 -19 -2 -29 6 -17 12 -18 14 -3 14 9 0
22 9 29 20 7 11 23 20 35 20 13 0 32 9 43 20 11 11 25 20 30 20 16 0 12 17 -6
24 -9 3 -14 13 -11 20 3 8 0 17 -8 20 -15 5 -9 46 7 46 6 0 8 7 5 15 -4 8 -2
17 4 20 5 4 7 11 4 16 -4 5 9 9 27 9 25 0 29 -3 18 -10 -12 -7 -12 -12 -2 -22
9 -9 12 -9 12 1 0 7 6 27 14 44 16 37 40 127 56 207 6 30 16 75 21 99 5 24 15
103 20 175 14 172 16 176 76 177 27 0 80 6 119 13 75 13 151 12 198 -4 28 -10
71 -5 91 10 6 5 24 10 40 13 28 4 27 4 -7 6 -20 0 -39 5 -42 9 -3 5 -19 7 -36
4 -18 -2 -30 0 -30 7 0 6 7 11 16 11 8 0 13 4 10 8 -3 5 -50 15 -106 22 -82
11 -115 11 -186 0 -52 -7 -89 -9 -95 -3 -5 5 -11 76 -13 159 -7 223 -51 340
-174 456 -115 109 -273 169 -434 167 -46 -1 -92 -3 -103 -6z m275 -130 c131
-32 183 -86 238 -248 34 -102 54 -233 52 -350 -2 -89 -9 -105 -51 -105 -15 0
-31 -4 -34 -10 -3 -5 -18 -10 -33 -10 -46 0 -273 -50 -407 -90 -122 -37 -206
-52 -220 -40 -16 13 -95 126 -95 136 0 3 -13 16 -29 30 -16 14 -40 44 -53 67
-13 23 -51 76 -84 117 -82 101 -88 114 -70 143 27 40 258 245 321 284 75 47
175 86 245 96 42 6 152 -4 220 -20z m-1380 -20 c38 -12 71 -33 108 -68 29 -27
83 -77 120 -110 71 -63 171 -174 191 -212 14 -28 8 -42 -54 -114 -25 -29 -45
-58 -45 -65 0 -7 -3 -14 -7 -16 -10 -4 -83 -111 -83 -121 0 -4 -11 -20 -25
-35 -13 -14 -38 -51 -55 -82 -34 -62 -73 -110 -91 -110 -6 0 -46 11 -88 25
-149 48 -315 83 -426 89 -97 6 -112 9 -128 29 -10 12 -15 31 -12 42 3 11 10
98 15 194 10 189 22 263 52 327 43 93 154 186 261 218 129 40 168 41 267 9z
m561 -555 c30 -39 59 -78 64 -87 6 -9 26 -36 45 -61 125 -158 135 -199 53
-219 -27 -7 -75 -24 -108 -37 -33 -13 -65 -24 -71 -24 -6 0 -38 -11 -72 -25
-34 -14 -74 -25 -89 -25 -36 0 -206 58 -215 73 -11 16 -4 30 50 109 26 38 58
87 72 108 83 126 107 159 148 207 25 29 51 53 58 53 6 0 36 -32 65 -72z m1094
-293 c-1 -44 -8 -118 -18 -165 -9 -47 -28 -150 -42 -230 -13 -80 -32 -166 -41
-193 -9 -26 -14 -53 -11 -60 3 -7 -3 -29 -12 -49 -14 -31 -19 -34 -33 -25 -70
50 -160 107 -208 132 -48 24 -87 75 -135 175 -14 30 -30 62 -35 70 -5 8 -27
51 -50 95 -22 44 -50 97 -62 118 -33 57 -22 67 128 105 71 18 160 42 197 53
38 12 94 25 125 30 32 6 77 14 102 18 25 5 56 8 70 7 25 -1 25 -3 25 -81z
m-2382 -27 c-1 -19 4 -28 19 -31 12 -4 17 -10 13 -17 -5 -9 -1 -10 15 -5 33
11 108 -36 123 -77 5 -13 8 -7 22 37 7 24 67 18 235 -24 85 -21 186 -44 223
-52 l68 -13 -7 -30 c-3 -17 -14 -45 -23 -61 -21 -35 -35 -83 -32 -105 1 -10
-1 -11 -6 -3 -13 18 -44 -10 -47 -44 -2 -18 -9 -28 -19 -28 -9 0 -22 -6 -29
-13 -8 -8 -8 -12 -1 -12 6 0 14 6 16 13 3 6 6 2 6 -10 1 -12 -9 -33 -21 -46
-20 -21 -26 -22 -51 -12 -15 6 -24 15 -20 19 4 4 0 4 -10 0 -19 -7 -21 -13 -8
-33 5 -8 16 -11 30 -6 16 5 21 2 21 -12 0 -18 -30 -91 -50 -123 -6 -8 -14 -25
-20 -37 -5 -12 -23 -52 -40 -90 -39 -85 -47 -104 -54 -125 -10 -32 -35 -20
-41 20 -7 40 -16 74 -35 135 -11 37 -11 39 32 87 23 26 51 51 60 54 30 12 95
76 76 76 -9 0 -18 5 -20 12 -3 8 -28 -3 -71 -30 -65 -41 -107 -53 -107 -31 0
8 -4 8 -15 -1 -20 -17 -38 -2 -31 26 5 17 2 24 -9 24 -12 0 -15 -14 -15 -69
l0 -68 -72 -49 c-40 -26 -75 -50 -78 -54 -3 -3 -25 -21 -50 -40 -25 -19 -47
-37 -50 -40 -25 -28 -274 -230 -283 -230 -29 1 -120 82 -291 258 -78 81 -95
104 -118 165 -34 90 -37 186 -8 289 34 123 81 192 175 256 22 15 42 30 45 33
16 20 99 50 176 63 71 13 105 14 169 5 44 -5 111 -9 148 -7 l69 3 -21 27 c-26
32 -28 61 -3 56 11 -3 16 -12 15 -30z m1606 -143 c22 -31 41 -58 41 -61 0 -2
20 -37 44 -77 50 -82 64 -121 46 -132 -6 -4 -21 0 -33 7 -12 8 -44 22 -72 32
-27 10 -63 24 -80 30 -16 7 -46 19 -65 26 -19 8 -37 17 -40 20 -5 6 -37 21
-132 61 -58 24 -73 44 -40 56 9 3 28 14 42 24 36 24 168 67 211 68 33 1 40 -5
78 -54z m-439 -371 c0 -51 -38 -156 -121 -340 -27 -59 -22 -174 12 -249 29
-65 49 -130 45 -142 -4 -8 -23 -13 -55 -13 -58 0 -206 -32 -308 -66 -85 -29
-99 -29 -108 -6 -4 9 -9 74 -11 144 -3 112 -1 137 21 213 14 46 33 99 43 117
58 108 171 244 227 275 109 59 168 81 218 82 28 1 37 -3 37 -15z m78 -247 c37
-75 66 -247 43 -261 -14 -9 -39 71 -46 147 -9 93 -47 132 -59 60 -18 -103 -28
-143 -37 -143 -22 0 -2 117 34 203 9 20 22 37 30 37 7 0 23 -19 35 -43z m873
3 c30 -16 62 -30 71 -30 9 0 20 -9 23 -20 4 -11 11 -18 16 -15 5 4 9 -3 9 -14
0 -12 -5 -18 -13 -16 -8 4 -19 -14 -31 -47 -32 -92 -51 -100 -79 -35 -33 77
-51 109 -64 114 -11 4 -11 9 -2 20 9 10 9 17 1 25 -16 16 -15 48 1 48 8 0 38
-13 68 -30z m702 -492 c12 -6 27 -17 32 -24 6 -7 39 -36 75 -64 131 -104 236
-217 266 -286 54 -126 64 -162 64 -252 0 -104 -29 -171 -110 -253 -113 -114
-282 -162 -556 -157 l-149 3 -12 55 c-14 67 -38 208 -54 310 -6 41 -20 118
-30 172 -31 157 -32 154 64 221 125 87 179 130 267 212 81 76 102 85 143 63z
m-1698 -109 c19 -30 -108 -100 -215 -119 -51 -8 -79 -8 -130 3 -85 17 -88 39
-10 72 91 38 340 69 355 44z m450 -25 c147 -35 171 -50 139 -85 -33 -36 -70
-49 -143 -49 -49 0 -90 7 -135 24 -77 27 -156 88 -156 118 0 20 3 20 118 13
64 -4 144 -13 177 -21z m-263 -240 c46 -15 92 -30 103 -34 11 -5 28 -11 38
-14 23 -7 22 -33 -3 -41 -10 -3 -46 -6 -80 -6 -49 -1 -70 5 -115 30 -30 17
-61 31 -69 31 -8 0 -36 -11 -62 -25 -35 -18 -62 -25 -105 -25 -63 0 -76 11
-31 28 80 29 171 65 183 73 23 14 53 11 141 -17z m895 -164 c6 -41 18 -115 27
-165 43 -258 49 -306 38 -317 -7 -7 -36 -6 -99 5 -48 9 -117 19 -153 22 -36 4
-99 14 -140 22 -41 9 -88 18 -105 21 -60 9 -59 17 29 145 46 67 94 142 107
165 20 36 43 55 139 113 63 38 122 68 130 67 10 -2 18 -27 27 -78z m-1309
-211 c69 -35 122 -67 122 -75 0 -16 -50 -39 -128 -60 -70 -19 -67 -19 -93 24
-59 99 -89 155 -89 169 0 25 52 9 188 -58z m784 17 c1 -4 -21 -41 -47 -82
l-49 -74 -55 7 c-65 7 -124 29 -116 43 6 9 15 14 130 65 110 49 120 53 128 51
5 -1 9 -5 9 -10z m-316 -201 c41 -14 82 -25 92 -25 10 0 27 -6 37 -14 21 -15
23 -11 -50 -106 -19 -25 -47 -64 -62 -88 -15 -24 -47 -67 -71 -95 -24 -29 -58
-76 -75 -104 -20 -34 -39 -53 -50 -53 -24 0 -64 43 -117 123 -22 34 -47 71
-56 82 -33 43 -94 154 -94 173 0 16 27 29 153 75 83 30 167 55 185 56 19 0 67
-10 108 -24z"/>
<path d="M1895 9125 c-143 -32 -249 -90 -354 -194 -123 -122 -179 -265 -182
-462 -1 -115 13 -197 51 -290 35 -85 69 -137 135 -204 99 -100 192 -149 360
-190 101 -25 291 -16 395 20 141 48 196 81 292 175 71 70 121 152 155 255 23
69 26 97 27 210 0 192 -32 299 -132 430 -25 33 -68 79 -96 103 -51 43 -198
122 -227 122 -8 0 -19 4 -24 9 -31 28 -295 39 -400 16z m343 -44 c9 -5 50 -19
90 -32 40 -13 92 -36 115 -52 23 -15 53 -35 67 -44 82 -53 186 -220 210 -337
19 -93 17 -250 -3 -329 -30 -112 -107 -237 -147 -237 -9 0 -25 -7 -36 -15 -27
-21 -32 -19 -40 18 -6 31 -7 31 -15 9 -6 -16 -14 -22 -26 -18 -53 15 -71 17
-78 6 -6 -9 -10 -9 -17 1 -7 11 -11 11 -15 1 -2 -6 -10 -9 -16 -5 -18 11 -39
15 -72 14 -16 -1 -40 4 -52 10 -20 11 -16 14 45 46 114 60 159 126 116 174
-14 15 -19 16 -67 2 -83 -23 -308 -29 -404 -9 -123 25 -133 22 -133 -40 0 -64
166 -164 271 -164 42 0 51 -13 20 -29 -14 -8 -20 -7 -24 3 -3 8 -23 12 -62 12
-45 -1 -59 3 -66 17 -12 22 -27 22 -25 0 2 -24 -107 -28 -130 -5 -13 13 -20
13 -35 3 -11 -6 -24 -9 -29 -6 -6 4 -13 -1 -16 -9 -8 -20 -30 -21 -38 -1 -7
20 -26 19 -41 -2 -12 -16 -16 -15 -47 12 -107 91 -162 307 -127 501 28 162
104 287 235 390 68 54 190 105 295 123 61 11 270 6 297 -8z"/>
<path d="M1800 8893 c-44 -15 -98 -48 -123 -75 -50 -54 -62 -112 -25 -121 17
-5 32 5 67 44 25 27 66 60 91 73 50 27 66 46 57 70 -6 16 -36 20 -67 9z"/>
<path d="M1783 8660 c-41 -25 -59 -82 -43 -139 34 -127 200 -98 200 34 0 101
-78 154 -157 105z"/>
<path d="M2335 8668 c-81 -29 -185 -118 -185 -158 0 -29 18 -35 110 -35 71 0
93 -4 133 -25 55 -28 80 -21 85 23 3 21 -5 32 -39 56 -23 17 -48 31 -56 31
-26 0 -12 17 29 36 51 23 67 46 49 68 -15 18 -80 20 -126 4z"/>
<path d="M10805 9054 c-178 -32 -287 -85 -401 -199 -142 -141 -202 -306 -191
-524 7 -122 16 -169 48 -238 10 -24 19 -45 19 -48 0 -3 20 -35 44 -72 43 -68
125 -147 203 -196 142 -90 353 -127 542 -96 81 13 210 62 280 106 98 62 228
211 262 300 38 100 50 329 24 455 -35 165 -135 307 -287 405 -36 24 -69 43
-73 43 -3 0 -25 9 -48 19 -99 45 -300 66 -422 45z m224 -39 c92 -10 211 -47
271 -84 77 -47 188 -152 214 -200 7 -15 22 -42 33 -61 38 -67 54 -141 60 -277
3 -73 3 -139 -1 -149 -6 -15 -8 -15 -27 2 -13 12 -42 21 -76 24 -53 5 -56 7
-67 40 -22 69 -120 102 -187 63 -61 -36 -87 -154 -58 -268 10 -39 9 -48 -12
-85 -21 -37 -22 -43 -8 -53 16 -12 22 -47 8 -47 -13 0 -41 -59 -33 -71 4 -7
10 -7 16 -1 6 6 17 8 25 5 9 -4 14 0 13 8 -5 34 -1 42 15 29 12 -10 20 -9 40
4 14 9 24 21 22 27 -1 7 5 14 13 16 9 3 11 1 5 -4 -13 -11 -18 -63 -6 -63 23
0 41 14 41 31 0 10 5 19 11 19 5 0 7 5 4 10 -3 6 -1 10 4 10 6 0 11 -7 11 -15
0 -8 7 -15 15 -15 8 0 15 -7 15 -16 0 -10 -6 -14 -15 -11 -8 4 -23 -5 -35 -20
-11 -15 -30 -33 -42 -41 -20 -14 -21 -14 -16 11 5 25 4 25 -19 10 -14 -9 -22
-22 -19 -30 3 -8 -2 -16 -12 -19 -9 -3 -35 -14 -57 -24 -50 -22 -120 -36 -110
-21 3 6 17 11 30 11 12 0 25 6 28 14 3 8 21 16 39 18 26 2 33 8 34 26 1 26
-11 28 -33 6 -9 -8 -24 -13 -34 -11 -14 4 -19 0 -19 -14 0 -12 -7 -19 -20 -19
-11 0 -20 4 -20 8 0 15 25 62 33 62 4 0 7 9 7 19 0 11 4 22 9 26 13 7 11 65
-2 65 -5 0 -16 -8 -23 -17 -11 -16 -13 -11 -13 32 0 202 -5 225 -54 248 -84
40 -157 29 -157 -23 0 -34 17 -50 54 -50 17 0 38 -4 46 -10 11 -7 9 -11 -11
-19 -49 -18 -47 -61 3 -87 38 -20 27 -34 -25 -34 -54 0 -87 -22 -87 -59 0 -16
7 -34 14 -41 10 -8 12 -18 7 -33 -5 -12 -7 -26 -5 -32 1 -5 5 -22 8 -37 4 -16
10 -27 14 -27 19 3 20 -3 5 -21 -20 -23 -38 -27 -30 -6 8 20 -15 36 -42 29
-17 -4 -19 -8 -9 -14 11 -7 10 -11 -2 -19 -21 -14 -32 -8 -53 29 -16 26 -17
34 -6 47 9 11 9 18 1 26 -7 7 -12 20 -12 29 0 10 -9 21 -20 24 -15 5 -19 12
-15 26 7 20 -9 27 -21 8 -6 -11 23 -78 40 -90 4 -4 3 -10 -3 -13 -6 -4 -11 -2
-11 3 0 6 -7 11 -15 11 -8 0 -15 9 -15 19 0 32 -17 33 -28 2 -9 -27 -8 -30 15
-36 35 -8 67 -41 60 -59 -9 -23 -34 -20 -40 4 -3 13 -14 20 -30 20 -23 0 -26
5 -36 45 -5 19 -23 35 -33 29 -6 -4 -7 -20 -4 -36 l6 -29 -45 38 c-44 37 -57
67 -32 76 7 4 6 6 -5 6 -9 1 -24 4 -33 8 -15 5 -16 3 -6 -15 8 -15 8 -22 1
-22 -5 0 -10 5 -10 10 0 6 -7 10 -15 10 -8 0 -22 12 -32 26 -10 15 -27 36 -39
48 -28 28 -66 97 -93 171 -31 82 -39 259 -17 365 58 277 290 472 591 499 44 4
89 6 100 5 11 -2 44 -6 74 -9z"/>
<path d="M10622 8795 c-56 -24 -93 -56 -123 -103 -35 -55 -35 -60 -5 -73 21
-10 28 -6 74 43 29 30 73 65 99 79 86 43 44 93 -45 54z"/>
<path d="M10649 8645 c-29 -16 -59 -70 -59 -107 0 -12 9 -42 19 -64 14 -32 28
-45 54 -53 79 -27 145 41 134 137 -9 78 -85 123 -148 87z"/>
<path d="M11170 8632 c-54 -26 -160 -118 -160 -138 0 -27 28 -47 61 -44 85 8
137 3 180 -18 53 -26 72 -27 89 -7 23 27 3 63 -50 93 -27 15 -50 30 -50 33 0
3 19 14 43 25 36 16 42 23 42 49 0 29 -2 30 -50 32 -37 2 -64 -5 -105 -25z"/>
<path d="M10498 8368 c-20 -15 -48 -78 -48 -108 0 -15 7 -20 25 -20 14 0 25
-4 25 -10 0 -5 -4 -10 -10 -10 -5 0 -10 -5 -10 -11 0 -8 5 -7 15 1 9 7 35 14
59 14 47 1 76 19 76 46 0 24 -11 32 -26 19 -10 -8 -12 -3 -7 27 6 34 5 37 -15
32 -15 -4 -22 -2 -22 8 0 8 -4 14 -9 14 -5 0 -15 2 -23 5 -7 3 -21 0 -30 -7z"/>
<path d="M9019 8944 c-11 -13 -10 -21 4 -46 9 -16 17 -33 17 -38 0 -9 -97 -85
-160 -125 -40 -25 -56 -65 -26 -65 19 0 158 87 169 105 15 28 62 18 92 -20 21
-29 30 -34 41 -24 20 16 18 27 -11 65 -14 18 -25 38 -25 44 0 7 -11 25 -25 42
-14 16 -25 36 -25 43 0 24 -36 37 -51 19z"/>
<path d="M3689 8290 c-42 -45 -63 -60 -84 -60 -26 0 -27 2 -22 40 3 26 1 38
-5 34 -6 -4 -15 0 -20 7 -7 10 -8 8 -5 -8 3 -13 2 -25 -3 -28 -4 -3 -11 -17
-14 -31 -6 -21 -1 -33 20 -55 45 -47 74 -40 151 36 71 69 71 69 92 56 38 -24
-6 -121 -55 -121 -29 0 -42 -36 -21 -57 13 -13 20 -13 51 -2 20 7 48 26 64 42
24 25 27 36 27 98 0 63 -3 72 -25 89 -14 11 -41 20 -60 20 -30 0 -43 -9 -91
-60z"/>
<path d="M2944 8315 c-74 -33 -89 -60 -168 -300 -24 -73 -21 -90 26 -141 73
-79 256 -194 309 -194 30 0 32 -26 13 -168 -6 -45 -27 -62 -77 -62 -29 0 -160
-43 -214 -69 -23 -12 -48 -21 -55 -21 -7 0 -27 -9 -45 -20 -34 -20 -54 -69
-53 -131 1 -19 -2 -86 -6 -150 l-6 -116 27 -25 c30 -28 261 -107 379 -129 82
-16 88 -26 84 -136 -3 -83 1 -78 -103 -123 -54 -24 -133 -76 -152 -100 -15
-19 1 -40 31 -40 27 0 52 -15 38 -24 -5 -3 -32 -7 -60 -8 -42 -2 -47 -4 -33
-15 25 -19 53 -15 102 15 93 58 245 121 292 122 24 0 25 28 7 195 -16 152 -39
210 -83 219 -12 2 -67 12 -122 21 -95 16 -156 35 -235 73 l-35 17 3 88 c6 132
8 138 78 165 32 13 66 27 74 32 8 4 49 15 90 25 186 45 177 41 189 91 7 26 18
102 26 171 13 109 13 127 0 153 -8 16 -25 32 -37 36 -41 12 -222 105 -256 131
-18 13 -40 36 -49 49 -15 24 -15 30 11 117 16 51 31 98 35 106 4 9 41 21 86
30 43 9 80 21 82 28 7 19 -16 53 -34 53 -13 0 -14 3 -5 12 7 7 12 17 12 24 0
17 -127 16 -166 -1z"/>
<path d="M10066 8305 c-5 -13 -9 -13 -26 -3 -17 11 -22 10 -35 -10 -12 -16
-27 -22 -53 -23 l-37 -1 31 -13 c17 -8 35 -22 39 -32 12 -31 45 -157 45 -175
0 -29 -61 -88 -150 -146 -212 -136 -226 -152 -210 -229 17 -81 30 -160 30
-186 0 -15 13 -41 29 -59 24 -28 42 -36 112 -51 85 -19 158 -46 239 -89 54
-29 62 -54 58 -175 l-3 -86 -75 -28 c-41 -16 -111 -41 -155 -56 -107 -35 -150
-60 -169 -97 -19 -40 -29 -233 -12 -263 13 -26 44 -50 150 -120 87 -58 176
-138 176 -158 0 -22 -31 -118 -54 -165 l-21 -45 -75 -7 c-41 -4 -136 -7 -211
-7 -134 -1 -137 -1 -153 -26 -9 -13 -16 -34 -16 -45 0 -12 -8 -35 -17 -53 -9
-18 -29 -68 -44 -111 l-28 -79 38 -36 c20 -20 51 -48 67 -62 44 -39 115 -125
158 -192 l39 -60 -19 -36 c-19 -35 -66 -115 -94 -158 -25 -39 -89 -29 -284 41
-134 49 -154 48 -214 -11 -58 -59 -104 -111 -126 -146 -24 -36 -14 -92 26
-137 92 -105 188 -267 188 -320 0 -9 -34 -51 -76 -93 -85 -86 -104 -93 -174
-57 -22 11 -44 20 -50 20 -7 0 -30 13 -53 29 -127 87 -198 131 -211 131 -16 0
-83 -52 -166 -129 -30 -28 -68 -56 -83 -63 -33 -15 -34 -52 -2 -54 42 -2 47
-4 42 -19 -4 -8 -2 -17 3 -20 6 -4 10 -12 10 -18 0 -7 -11 2 -25 18 -32 39
-31 23 4 -93 17 -57 31 -129 34 -175 5 -90 19 -72 -131 -168 -70 -45 -98 -58
-115 -53 -12 3 -81 67 -153 140 -145 148 -145 148 -239 118 -116 -38 -187 -70
-200 -91 -11 -16 -16 -64 -19 -175 -4 -138 -9 -201 -22 -265 -4 -21 -22 -31
-109 -59 -68 -23 -79 -19 -129 44 -83 104 -117 154 -153 218 -19 35 -48 73
-64 85 -28 20 -31 20 -106 5 -43 -8 -98 -18 -123 -22 -63 -9 -98 -32 -106 -68
-7 -36 -42 -150 -55 -183 -7 -18 -5 -23 7 -23 9 0 14 -6 11 -12 -2 -7 -13 -12
-23 -11 -10 1 -13 0 -6 -3 6 -3 12 -23 12 -44 0 -39 -14 -61 -51 -80 -10 -6
-19 -17 -19 -25 0 -11 -13 -15 -42 -17 -24 0 -47 -2 -53 -3 -5 -2 -15 -3 -22
-4 -7 0 -10 -7 -7 -14 3 -8 -9 -25 -28 -39 -27 -20 -38 -23 -60 -16 -25 9 -26
10 -12 36 13 25 12 27 -8 35 -13 4 -26 13 -30 19 -5 9 -14 9 -35 -1 -19 -9
-29 -9 -31 -2 -4 12 -48 15 -55 4 -6 -9 32 -93 52 -117 12 -14 37 -16 202 -14
214 2 217 3 238 85 6 23 20 70 31 104 11 34 18 64 15 67 -2 3 -7 -3 -11 -12
-7 -18 -34 -22 -34 -5 0 17 34 54 49 54 10 0 24 29 40 80 14 44 26 82 28 84 3
5 125 30 151 31 14 0 26 -8 31 -22 5 -13 18 -32 30 -42 11 -11 21 -25 21 -32
0 -19 71 -137 115 -190 77 -93 91 -104 132 -104 41 0 159 28 233 55 102 37
109 58 119 339 l6 189 55 28 c76 40 101 38 132 -8 47 -72 200 -217 258 -245
69 -34 82 -31 187 43 45 32 95 65 110 73 15 8 45 32 66 54 42 43 42 45 38 190
-2 40 -9 85 -17 100 -8 15 -14 36 -14 46 0 11 -7 46 -17 79 l-16 59 34 30 c19
17 51 42 71 55 l36 25 48 -27 c27 -15 66 -39 89 -54 42 -28 120 -61 145 -61 8
0 27 7 43 14 25 14 27 13 27 -4 0 -12 -9 -20 -22 -22 -16 -3 -8 -7 22 -12 65
-11 118 16 218 109 95 89 112 116 112 180 0 59 -67 204 -145 315 -30 43 -55
83 -55 90 0 18 73 100 90 100 15 0 132 -40 166 -58 20 -9 120 -27 214 -37 53
-6 57 -4 86 27 41 45 164 262 171 302 6 38 -19 92 -80 176 -47 64 -185 205
-207 212 -13 4 -13 11 3 54 10 27 21 60 24 74 11 50 17 52 145 44 117 -7 210
2 301 28 44 13 56 26 67 70 9 35 20 67 57 166 26 72 29 112 9 150 -25 47 -160
167 -226 200 -14 7 -46 28 -72 47 l-48 35 6 62 c4 35 9 66 13 69 6 7 135 53
291 106 49 16 85 35 104 55 28 31 28 31 21 122 -4 50 -9 125 -10 168 -2 51 -9
85 -21 102 -20 32 -244 144 -319 161 -74 17 -95 27 -95 46 0 11 -7 42 -16 69
-25 77 -20 88 77 144 94 56 145 94 226 172 63 61 66 82 28 208 -13 44 -29 100
-35 122 -12 48 -34 73 -44 49z"/>
<path d="M3464 8075 c-10 -26 15 -43 92 -67 75 -22 87 -36 43 -49 -180 -53
-181 -53 -191 -78 -11 -30 5 -46 62 -61 19 -6 75 -21 125 -35 108 -30 122 -31
130 -4 9 28 2 33 -83 59 -40 13 -71 28 -69 34 4 11 12 14 115 43 109 31 133
78 52 101 -25 7 -65 19 -90 27 -55 18 -157 45 -171 45 -5 0 -12 -7 -15 -15z"/>
<path d="M9395 7989 c-44 -10 -107 -25 -139 -32 -68 -15 -90 -37 -64 -63 14
-14 23 -15 62 -5 25 6 52 11 60 11 19 0 48 -65 44 -100 -3 -21 -11 -27 -63
-41 -46 -12 -61 -20 -63 -36 -6 -38 19 -44 94 -25 122 32 164 42 182 42 31 0
52 23 45 49 -6 22 -9 23 -69 16 -73 -8 -75 -6 -77 71 l-2 47 53 15 c36 10 52
20 52 31 0 17 -19 42 -29 40 -4 0 -42 -9 -86 -20z"/>
<path d="M3388 7739 c-21 -12 -24 -57 -5 -64 26 -11 301 -54 309 -49 12 8 10
50 -4 62 -7 6 -51 16 -98 23 -47 6 -102 18 -124 25 -45 16 -55 17 -78 3z"/>
<path d="M9475 7629 c-27 -4 -75 -11 -105 -14 -116 -13 -120 -14 -120 -41 0
-34 16 -37 105 -24 42 6 79 9 82 6 9 -9 -17 -35 -77 -79 -48 -36 -90 -74 -90
-83 0 -2 5 -15 12 -29 10 -23 16 -26 42 -20 17 3 85 12 150 20 65 8 123 18
128 23 6 6 8 18 6 28 -3 17 -13 19 -102 16 l-99 -4 39 36 c21 20 58 51 81 69
47 35 62 69 43 92 -13 16 -20 16 -95 4z"/>
<path d="M1619 7495 c-36 -7 -100 -27 -142 -45 -197 -82 -329 -231 -383 -435
-25 -94 -26 -284 -1 -375 38 -142 131 -282 240 -361 21 -15 51 -46 67 -68 35
-48 105 -91 160 -98 23 -3 59 1 89 11 27 9 79 16 115 16 241 0 434 82 571 242
102 119 155 267 155 435 0 322 -166 558 -463 657 -108 36 -286 45 -408 21z
m308 -39 c152 -32 257 -87 350 -183 118 -120 162 -229 170 -418 4 -92 2 -135
-11 -184 -31 -120 -95 -229 -154 -260 -12 -7 -21 -15 -18 -19 2 -4 -2 -15 -9
-25 -13 -18 -14 -18 -24 2 -7 12 -17 18 -27 14 -8 -3 -21 3 -29 13 -14 18 -14
18 -15 -3 0 -13 5 -22 13 -20 19 3 21 -49 1 -57 -9 -4 -19 -4 -22 -1 -3 3 0 5
7 5 7 0 10 4 6 10 -3 6 -15 5 -30 -2 -18 -8 -22 -15 -15 -23 20 -24 -4 -24
-27 1 -27 29 -29 44 -8 44 8 0 15 -4 15 -10 0 -5 5 -10 10 -10 6 0 5 8 -2 20
-15 23 -4 38 15 22 8 -7 16 -10 19 -7 9 10 -11 107 -26 124 -13 14 -11 20 15
51 32 38 36 71 14 114 -19 36 -19 35 10 46 17 6 33 6 50 -2 22 -10 28 -8 53
19 15 16 36 35 47 41 17 10 18 11 3 12 -12 0 -18 8 -18 23 0 32 -10 41 -55 55
-37 11 -42 10 -57 -9 -15 -18 -30 -21 -94 -23 -61 -1 -77 2 -82 14 -18 52 -85
67 -132 30 -14 -11 -28 -20 -31 -20 -3 0 -47 -25 -97 -55 -50 -30 -96 -55
-103 -55 -7 0 -8 11 -3 33 21 81 -11 157 -65 157 -38 0 -58 -18 -76 -70 -9
-25 -27 -61 -40 -80 -13 -19 -36 -58 -52 -86 -15 -27 -42 -72 -60 -99 -17 -27
-40 -77 -50 -112 l-17 -62 -37 40 c-45 48 -86 126 -106 199 -22 80 -22 278 1
355 73 247 234 393 496 450 78 17 217 18 297 1z m-328 -610 c12 -26 11 -35
-13 -93 -20 -49 -24 -68 -16 -83 6 -11 15 -20 20 -20 5 0 41 20 80 45 39 25
72 45 75 45 2 0 31 17 62 37 106 69 130 76 153 48 11 -13 11 -20 0 -40 -7 -14
-17 -25 -22 -25 -6 0 -177 -108 -217 -136 -2 -2 -1 -10 3 -19 7 -19 1 -22 192
91 77 46 148 84 156 84 9 0 21 -7 28 -15 23 -27 -3 -58 -99 -115 -50 -30 -107
-64 -125 -75 -63 -38 -96 -69 -88 -83 9 -13 21 -9 82 29 169 105 202 121 226
110 41 -18 30 -47 -33 -88 -32 -21 -59 -41 -61 -45 -2 -5 -8 -8 -13 -8 -17 0
-139 -85 -139 -97 0 -23 32 -14 107 32 40 25 82 45 92 45 27 0 44 -25 33 -47
-9 -16 -169 -113 -371 -225 -145 -80 -245 -38 -328 140 -31 65 -35 82 -30 124
4 28 18 69 32 92 15 22 42 66 60 96 19 30 39 60 44 66 5 6 22 46 37 88 29 84
48 94 73 42z"/>
<path d="M1461 7123 c-97 -88 -40 -198 59 -113 19 16 38 30 41 30 3 0 18 -13
34 -30 37 -38 78 -40 101 -5 16 24 15 28 -7 71 -29 56 -75 84 -140 84 -40 0
-53 -6 -88 -37z"/>
<path d="M1927 7141 c-33 -21 -54 -49 -69 -91 -8 -26 -7 -34 7 -50 26 -29 66
-25 100 10 16 17 34 30 40 30 7 0 24 -13 38 -30 43 -48 107 -38 107 17 0 34
-24 76 -60 107 -39 33 -119 36 -163 7z"/>
<path d="M1322 6848 c-6 -6 -22 -10 -35 -10 -15 0 -27 -7 -30 -17 -6 -24 20
-102 43 -130 17 -20 23 -21 36 -10 12 10 17 10 23 1 11 -18 35 12 60 74 l20
52 -22 19 c-26 24 -80 36 -95 21z"/>
<path d="M11045 7494 c-298 -51 -519 -239 -592 -504 -25 -92 -23 -240 6 -350
13 -47 27 -91 33 -98 8 -9 5 -19 -10 -35 -64 -68 -80 -192 -38 -283 29 -62 74
-106 145 -141 51 -25 66 -28 208 -31 165 -5 194 2 212 51 8 20 15 22 112 24
57 1 127 4 155 8 51 6 51 6 57 -25 10 -47 53 -60 189 -59 152 1 228 19 294 69
107 81 141 225 79 338 -15 29 -34 57 -41 63 -10 8 -7 25 14 82 22 63 26 88 26
202 0 114 -3 141 -27 218 -110 352 -433 537 -822 471z m285 -38 c94 -18 99
-20 190 -65 145 -71 263 -222 317 -406 25 -86 24 -250 -2 -334 -11 -35 -25
-65 -31 -68 -6 -2 -36 4 -66 14 -30 10 -67 18 -84 17 -16 0 -61 -2 -101 -2
-83 -2 -106 -17 -101 -66 l3 -31 -91 -5 c-93 -5 -124 -17 -124 -49 0 -10 -15
-34 -33 -54 -34 -39 -50 -47 -41 -22 4 9 0 15 -7 16 -8 1 -20 2 -28 3 -8 0
-19 17 -23 36 -15 59 -38 70 -140 70 -86 0 -89 1 -83 21 10 29 -2 66 -22 74
-10 3 -54 9 -98 12 -65 4 -91 1 -140 -17 -33 -12 -68 -24 -77 -27 -36 -11 -69
110 -69 247 1 193 49 313 175 436 173 168 437 246 676 200z m405 -892 c37 -15
86 -66 80 -85 -4 -10 1 -21 11 -27 13 -7 14 -12 3 -29 -7 -13 -9 -28 -4 -39 5
-11 7 -23 6 -28 -4 -19 10 -57 19 -51 12 7 12 3 4 -20 -6 -13 -9 -14 -16 -3
-6 8 -7 2 -3 -19 4 -19 2 -33 -3 -33 -5 0 -12 -17 -15 -37 -7 -44 -44 -79 -98
-93 -20 -6 -92 -11 -160 -12 -183 -1 -187 -1 -194 23 -10 32 8 42 72 41 76 -2
113 6 113 24 0 15 -28 17 -188 15 -79 -2 -83 -1 -94 24 -8 17 -8 29 -1 36 5 5
56 10 114 10 117 0 139 4 139 25 0 11 -25 14 -139 14 -114 0 -141 3 -152 16
-9 11 -10 20 -2 32 8 14 32 17 152 20 113 2 141 5 141 17 0 19 -22 24 -127 23
-50 0 -97 3 -102 7 -17 10 -13 52 5 59 9 3 92 6 185 6 144 0 169 2 169 15 0 9
-10 15 -22 16 -100 4 -122 8 -135 25 -7 10 -12 23 -10 29 8 22 195 22 252 -1z
m-879 1 c11 -28 -15 -43 -91 -50 -55 -5 -75 -11 -75 -21 0 -15 -7 -14 247 -16
81 0 115 -4 123 -14 14 -15 4 -54 -13 -55 -7 0 -57 -1 -112 -2 -86 -2 -100 -4
-103 -19 -3 -16 11 -18 140 -20 l143 -3 0 -30 0 -30 -148 -3 c-134 -2 -148 -4
-145 -20 3 -15 18 -17 116 -18 128 -2 142 -5 142 -34 0 -31 -37 -40 -167 -37
-112 2 -118 1 -118 -18 0 -18 7 -20 77 -21 43 -1 85 -4 93 -8 17 -6 20 -41 5
-51 -5 -3 -79 -6 -163 -6 -182 1 -221 12 -276 82 -24 29 -29 40 -17 36 14 -6
17 -3 12 9 -4 9 -1 23 6 31 10 12 9 18 -6 29 -15 11 -17 16 -7 28 15 18 6 37
-13 30 -14 -6 -30 22 -20 37 8 14 24 11 24 -6 0 -18 16 -20 26 -3 4 6 0 16 -9
23 -22 16 -22 31 0 43 10 6 14 16 10 26 -4 10 -11 14 -17 11 -20 -12 -9 15 18
43 54 59 86 71 205 71 87 1 109 -2 113 -14z"/>
<path d="M11285 7236 c-73 -33 -120 -139 -79 -180 27 -28 60 -19 95 24 37 46
46 48 82 20 28 -22 77 -26 95 -8 34 34 -5 110 -72 142 -41 19 -80 20 -121 2z"/>
<path d="M10825 7148 c-55 -32 -85 -81 -85 -138 0 -61 81 -74 111 -19 25 47
31 49 82 21 44 -25 49 -26 74 -12 35 20 40 45 18 86 -33 61 -143 95 -200 62z"/>
<path d="M11627 6994 c-4 -4 -14 -8 -24 -9 -42 -5 -62 -19 -72 -45 -8 -25 -7
-28 7 -23 33 13 -8 -26 -77 -71 -78 -52 -213 -99 -330 -116 -147 -22 -341 4
-333 44 2 9 -4 16 -12 16 -9 0 -13 6 -10 13 8 21 -23 42 -40 28 -11 -9 -15 -9
-19 1 -3 10 -9 8 -25 -5 -11 -11 -25 -16 -31 -13 -10 6 -31 -52 -31 -86 0 -23
49 -48 91 -47 19 1 64 -13 100 -29 172 -80 377 -83 539 -9 77 35 128 71 208
150 69 67 85 78 80 55 -2 -7 2 -14 7 -15 6 -2 10 6 10 18 0 11 5 23 11 27 9 6
10 24 5 75 -1 5 -11 5 -23 2 -17 -5 -19 -4 -9 3 8 6 11 17 8 26 -7 17 -19 21
-30 10z"/>
<path d="M3374 7301 c-44 -19 -54 -49 -54 -157 0 -84 3 -103 16 -108 9 -3 83
-6 165 -6 160 0 173 4 149 49 -8 17 -20 21 -58 21 -63 0 -78 10 -61 41 13 25
35 44 84 70 35 19 55 52 48 80 -8 28 -32 24 -92 -16 l-54 -36 -26 31 c-28 33
-79 47 -117 31z"/>
<path d="M9404 7281 c-81 -20 -124 -74 -124 -157 0 -62 22 -108 66 -138 32
-21 50 -26 102 -26 74 0 110 16 148 66 24 31 28 45 27 99 0 50 -5 68 -22 86
-11 13 -21 26 -21 31 0 24 -125 51 -176 39z m115 -86 c33 -17 41 -33 41 -86 0
-29 -5 -42 -22 -53 -58 -36 -152 -26 -182 19 -31 48 -11 108 44 128 29 11 91
7 119 -8z"/>
<path d="M3603 6945 c-3 -9 -3 -28 0 -43 5 -23 -5 -38 -64 -101 -78 -83 -83
-84 -160 -31 -54 37 -59 37 -59 3 0 -38 5 -42 88 -92 39 -24 72 -47 72 -51 0
-10 -18 -16 -75 -26 -53 -9 -57 -12 -45 -35 9 -15 21 -19 64 -19 29 0 66 4 82
9 16 5 62 15 102 22 65 11 72 14 72 36 0 25 -5 27 -67 23 -42 -2 -92 23 -93
45 0 6 23 29 52 50 75 58 80 64 77 104 -2 20 3 46 10 59 8 16 9 27 1 42 -13
24 -48 27 -57 5z"/>
<path d="M9276 6901 c-10 -17 -27 -152 -24 -186 3 -35 6 -40 28 -40 27 0 37
24 39 102 0 23 5 45 11 48 5 3 62 -1 126 -10 64 -9 123 -14 130 -11 8 3 14 19
14 35 0 33 9 30 -160 50 -121 15 -161 18 -164 12z"/>
<path d="M9292 6610 c-26 -18 -44 -40 -47 -57 -3 -16 -10 -41 -15 -56 -17 -55
30 -134 99 -163 44 -18 124 -18 161 1 51 26 80 81 80 149 0 77 -28 116 -99
140 -78 25 -131 21 -179 -14z m189 -76 c35 -34 39 -79 8 -118 -18 -23 -27 -26
-82 -26 -52 0 -65 4 -89 27 -49 46 -32 121 32 146 35 14 101 -1 131 -29z"/>
<path d="M3590 6388 c-14 -7 -29 -24 -35 -36 -8 -20 -15 -22 -42 -17 -34 6
-60 -3 -87 -30 -17 -17 -14 -53 10 -121 15 -43 36 -54 101 -54 l25 0 -23 -21
c-28 -24 -38 -26 124 22 59 18 107 37 107 42 0 26 -53 174 -70 195 -23 28 -76
37 -110 20z"/>
<path d="M9177 6227 c-55 -46 -90 -204 -49 -225 9 -5 38 -12 64 -15 48 -7 48
-6 68 33 26 50 25 70 0 70 -13 0 -24 -10 -30 -26 -15 -38 -51 -29 -63 15 -12
49 -2 76 38 101 29 18 44 21 82 15 114 -17 152 -151 56 -197 -29 -14 -42 -43
-25 -60 12 -12 58 10 86 41 11 12 28 44 37 72 18 50 18 53 -1 98 -30 68 -86
101 -171 101 -51 -1 -69 -5 -92 -23z"/>
<path d="M3765 5939 c-38 -23 -83 -46 -100 -52 -55 -19 -95 -48 -95 -68 0 -34
28 -32 104 7 41 21 78 35 82 32 8 -9 -12 -50 -67 -137 -40 -64 -43 -87 -14
-111 10 -9 41 3 142 54 165 83 169 87 154 114 -6 12 -19 22 -27 22 -14 0 -69
-24 -123 -55 -36 -20 -45 -8 -22 28 10 18 29 50 41 72 12 22 26 44 31 50 22
23 3 85 -25 85 -6 0 -42 -19 -81 -41z"/>
<path d="M3459 5849 c-13 -11 -18 -18 -11 -14 18 9 25 -20 11 -46 -12 -22 -12
-22 -30 12 -10 19 -18 27 -18 19 0 -8 6 -26 14 -40 23 -40 18 -67 -17 -94 -18
-13 -58 -49 -88 -78 -30 -29 -87 -82 -127 -116 -78 -69 -97 -104 -83 -152 11
-38 134 -226 168 -257 40 -36 154 -42 267 -14 22 5 60 15 85 21 24 6 49 15 55
19 5 5 24 12 42 16 27 5 35 2 55 -21 13 -15 44 -52 71 -81 26 -29 47 -59 47
-65 0 -7 -11 -28 -23 -47 -67 -102 -97 -150 -97 -159 0 -5 -7 -15 -16 -23 -8
-7 -13 -21 -11 -31 3 -11 0 -18 -8 -18 -17 0 -28 -31 -15 -44 7 -7 10 -7 10 1
0 6 9 9 21 6 19 -5 21 -3 16 19 -11 42 45 49 58 8 6 -18 7 -18 26 1 10 10 19
23 19 27 0 5 9 17 20 27 11 10 20 23 20 30 0 6 8 20 18 31 10 10 28 35 42 54
13 19 27 37 30 40 14 13 50 70 50 80 0 34 -236 324 -267 328 -12 2 -43 -7 -70
-19 -94 -43 -224 -79 -286 -79 -55 0 -62 3 -92 35 -34 36 -85 119 -85 139 0 7
70 80 155 163 149 144 155 152 155 190 0 29 -10 55 -37 96 -21 31 -41 57 -44
57 -4 0 -17 -9 -30 -21z"/>
<path d="M9003 5861 c-22 -15 -21 -40 2 -55 13 -9 29 -16 35 -16 21 0 72 -46
93 -84 30 -54 39 -67 63 -101 l21 -28 17 26 c17 25 17 27 -6 59 -33 46 -53 87
-45 95 4 3 33 8 65 11 36 2 62 10 70 20 17 22 15 42 -4 42 -11 0 -14 -6 -9
-20 6 -18 2 -20 -32 -20 -36 1 -37 1 -18 16 19 15 15 16 -54 11 -62 -5 -77 -3
-100 13 -31 24 -84 40 -98 31z"/>
<path d="M2053 5829 c-81 -12 -209 -59 -276 -102 -117 -75 -224 -208 -266
-330 -64 -184 -50 -422 34 -589 122 -243 395 -385 704 -365 195 13 350 80 478
204 49 49 123 148 123 166 0 4 9 28 21 53 28 63 49 180 49 275 0 458 -378 758
-867 688z m347 -59 c247 -69 413 -239 466 -479 13 -56 15 -103 11 -191 -5
-107 -8 -125 -43 -208 -22 -51 -55 -109 -74 -131 -33 -36 -40 -39 -83 -38 -33
1 -51 -3 -57 -13 -8 -12 -15 -11 -48 8 -40 22 -69 30 -42 11 11 -7 3 -8 -27
-4 -34 5 -43 4 -43 -8 0 -16 -37 -53 -46 -44 -14 13 10 49 44 66 20 10 52 26
71 36 60 32 154 136 195 217 47 92 56 153 29 187 -18 23 -20 23 -98 11 -190
-28 -243 -32 -451 -32 -217 0 -301 6 -452 29 -98 15 -103 15 -123 -3 -50 -46
8 -198 119 -312 37 -38 86 -81 110 -96 45 -28 56 -48 21 -39 -12 3 -25 0 -29
-7 -7 -11 -13 -10 -32 2 -15 10 -30 13 -38 8 -8 -5 -22 -4 -31 1 -18 9 -49 3
-49 -11 0 -4 -7 -10 -14 -13 -10 -4 -13 -1 -9 9 3 7 -1 14 -8 14 -16 0 -79 71
-79 88 0 8 -8 26 -18 40 -60 88 -76 313 -33 469 67 241 258 402 538 453 74 14
238 3 323 -20z m-565 -642 c127 -18 597 -15 742 5 146 20 143 20 143 4 0 -24
-33 -44 -120 -75 -148 -52 -239 -66 -410 -67 -125 0 -175 5 -256 23 -158 35
-274 85 -274 119 0 13 8 15 48 9 26 -4 83 -12 127 -18z"/>
<path d="M1910 5514 c-43 -16 -63 -32 -90 -73 -34 -51 -38 -81 -12 -104 28
-25 60 -21 99 13 18 17 39 30 46 30 8 0 26 -13 42 -30 48 -50 115 -33 115 29
0 31 -48 104 -79 121 -24 13 -100 22 -121 14z"/>
<path d="M2359 5497 c-31 -17 -50 -37 -68 -71 -23 -44 -24 -50 -10 -75 22 -40
69 -41 110 -2 18 17 37 31 44 31 6 0 24 -13 40 -30 48 -50 115 -33 115 29 0
38 -54 109 -95 127 -49 20 -85 17 -136 -9z"/>
<path d="M10582 5785 c-218 -49 -409 -197 -475 -369 -66 -173 -66 -420 1 -566
81 -177 219 -295 422 -358 175 -55 405 -32 572 56 71 37 218 163 218 187 0 7
7 18 15 25 22 19 62 108 84 192 17 61 21 108 21 235 0 87 2 187 3 223 1 61 -3
74 -64 205 -35 77 -69 140 -74 140 -8 0 -57 -78 -68 -110 -2 -5 -17 -1 -33 10
-75 51 -160 92 -238 117 -82 26 -296 34 -384 13z m298 -40 c129 -27 203 -58
283 -119 43 -33 45 -47 14 -124 -44 -109 -27 -185 54 -240 30 -21 42 -23 95
-18 l62 5 6 -62 c3 -34 3 -80 0 -102 -3 -22 -5 -47 -6 -55 -1 -38 -21 -101
-56 -172 -33 -69 -53 -91 -85 -93 -4 0 -12 -7 -17 -14 -7 -12 -10 -9 -16 12
-6 27 -7 27 -25 11 -18 -16 -19 -15 -29 7 -10 22 -10 21 -6 -8 3 -18 1 -35 -4
-38 -6 -3 -10 2 -10 12 0 11 -6 25 -12 32 -11 10 -4 21 32 54 94 88 167 234
155 309 -8 47 -28 54 -122 39 -169 -26 -495 -40 -633 -27 -36 3 -116 11 -179
16 -63 6 -121 14 -130 19 -30 14 -75 -2 -90 -34 -12 -24 -12 -37 -2 -75 21
-78 81 -171 158 -246 40 -39 73 -77 73 -84 0 -9 -5 -7 -15 6 -15 18 -16 18
-28 2 -10 -15 -13 -15 -23 10 -13 27 -13 27 -19 5 -9 -28 -20 -29 -34 -5 -10
16 -12 16 -26 -2 -14 -18 -15 -18 -29 16 -9 20 -22 38 -30 41 -18 7 -46 61
-58 112 -26 114 -30 147 -25 230 5 87 31 219 48 241 5 6 20 32 34 58 14 26 44
68 68 93 46 50 140 123 157 123 6 0 30 10 53 22 100 51 289 71 417 43z m390
-616 c0 -45 -221 -117 -425 -139 -172 -19 -348 5 -538 72 -122 43 -144 91 -34
74 250 -40 697 -41 902 -2 70 13 95 12 95 -5z"/>
<path d="M10414 5492 c-42 -27 -74 -81 -74 -126 0 -30 5 -38 26 -46 39 -15 51
-12 84 20 17 17 38 30 47 30 8 0 31 -13 50 -30 18 -16 43 -30 53 -30 24 0 60
34 60 55 0 25 -35 88 -64 115 -37 34 -136 40 -182 12z"/>
<path d="M10920 5502 c-32 -14 -58 -38 -79 -72 -56 -92 13 -160 92 -90 19 17
40 30 47 30 7 0 28 -13 47 -30 38 -34 59 -37 91 -14 39 27 30 76 -26 134 -47
48 -50 50 -103 49 -30 0 -61 -3 -69 -7z"/>
<path d="M4375 4614 c-16 -8 -37 -21 -45 -28 -55 -48 -247 -133 -312 -138 -24
-2 -138 65 -138 81 0 17 -40 20 -49 4 -5 -9 -15 -13 -24 -10 -10 4 -21 -3 -29
-16 -13 -20 -12 -24 15 -47 17 -14 42 -37 56 -51 49 -49 123 -99 144 -99 58 1
315 103 374 150 34 27 62 25 104 -6 19 -14 49 -32 67 -40 39 -17 41 -40 8
-115 -12 -30 -26 -82 -29 -117 -4 -34 -13 -72 -21 -85 -17 -28 -27 -143 -15
-171 6 -11 22 -27 36 -33 23 -11 29 -10 45 7 13 14 17 28 12 42 -6 19 -3 20
22 14 28 -7 28 -7 11 12 -16 18 -17 27 -7 88 6 38 17 85 25 104 7 19 19 56 26
83 6 26 16 50 20 53 5 3 9 16 9 28 0 13 7 29 15 36 8 7 15 23 15 37 0 29 -26
83 -41 83 -5 0 -37 19 -70 43 -96 68 -162 107 -179 107 -8 0 -28 -7 -45 -16z"/>
<path d="M7800 4617 c-19 -6 -41 -17 -48 -24 -7 -7 -19 -13 -25 -13 -7 0 -20
-7 -30 -14 -17 -13 -17 -15 0 -47 10 -19 21 -35 26 -37 4 -2 7 -12 7 -23 0
-11 4 -27 9 -37 40 -80 52 -97 68 -97 20 0 22 22 9 87 -10 48 13 61 52 29 15
-11 44 -30 65 -41 35 -19 39 -20 69 -4 30 16 31 18 14 28 -10 6 -34 21 -53 34
-18 12 -38 22 -43 22 -13 0 -13 37 0 45 18 11 10 56 -15 80 -26 27 -50 29
-105 12z"/>
<path d="M5234 4608 c-9 -15 -27 -316 -20 -344 3 -11 17 -27 32 -35 24 -12 28
-12 40 6 8 11 36 48 62 83 26 34 64 86 84 115 l38 52 -26 23 c-37 32 -41 31
-93 -36 -18 -23 -37 -40 -41 -37 -5 3 -6 37 -3 77 6 66 5 72 -18 89 -28 22
-45 24 -55 7z"/>
<path d="M7495 4478 c-3 -7 -4 -83 -2 -168 2 -116 5 -155 15 -154 6 1 17 2 22
3 6 0 10 15 10 31 0 38 27 65 75 74 34 7 41 4 65 -23 20 -21 34 -28 49 -24 11
3 21 10 21 16 0 8 -59 83 -110 138 -8 9 -26 31 -40 49 -42 55 -59 70 -80 70
-11 0 -23 -6 -25 -12z"/>
<path d="M5514 4453 c-3 -16 -24 -81 -47 -147 -39 -115 -40 -119 -22 -133 38
-27 49 -12 97 132 26 77 47 141 48 142 0 1 -7 9 -16 17 -25 25 -53 20 -60 -11z"/>
<path d="M5671 4407 c-10 -25 -62 -251 -65 -277 -2 -22 92 -69 140 -70 80 0
137 77 138 190 1 83 -23 121 -92 145 -26 9 -55 21 -64 26 -29 15 -48 10 -57
-14z m121 -83 l31 -16 -7 -71 c-4 -44 -13 -78 -23 -89 -19 -21 -62 -23 -88 -4
-17 12 -18 18 -6 72 28 131 34 138 93 108z"/>
<path d="M7240 4407 c-47 -16 -61 -26 -87 -64 -43 -61 -19 -183 45 -230 39
-29 116 -37 150 -16 36 22 92 75 92 86 0 6 -10 30 -22 54 -21 41 -25 44 -53
39 -16 -4 -39 -8 -50 -10 -12 -1 -20 -10 -20 -22 0 -13 6 -18 20 -17 41 5 66
-7 63 -30 -4 -26 -62 -67 -95 -67 -31 0 -66 38 -83 90 -12 36 -12 48 1 83 18
52 50 66 108 47 33 -10 43 -11 56 0 22 18 19 28 -17 50 -37 22 -57 24 -108 7z"/>
<path d="M6923 4318 c-9 -14 -31 -205 -32 -275 -1 -40 1 -43 24 -43 26 0 29 4
39 53 5 20 12 27 29 27 13 0 28 5 35 12 15 15 59 -7 67 -33 6 -19 37 -30 54
-19 9 5 5 19 -11 48 -38 69 -129 211 -145 227 -18 18 -49 19 -60 3z"/>
<path d="M5955 4303 c47 -109 57 -150 52 -215 -5 -71 2 -94 26 -85 9 3 16 26
19 65 3 32 12 69 19 81 13 20 11 24 -12 44 -15 12 -33 40 -40 62 -14 42 -34
65 -57 65 -10 0 -12 -6 -7 -17z"/>
<path d="M6510 4136 c0 -151 0 -154 23 -160 33 -9 47 18 47 91 0 36 4 63 10
63 6 0 24 -21 39 -47 46 -75 71 -103 97 -109 47 -12 54 7 54 151 0 74 -3 140
-6 149 -3 9 -17 16 -30 16 -31 0 -45 -34 -40 -98 8 -85 -7 -82 -68 12 -53 81
-58 86 -91 86 l-35 0 0 -154z"/>
<path d="M6270 4233 c-17 -38 -19 -54 -12 -78 l10 -30 1 35 c1 19 5 31 9 25 4
-5 14 -10 22 -10 8 0 21 -13 28 -28 12 -25 12 -31 -4 -48 -21 -23 -32 -24 -56
-2 -16 15 -21 15 -28 3 -5 -9 -5 -19 2 -27 7 -9 6 -14 -6 -19 -33 -12 -14 -21
42 -20 56 1 57 1 75 -36 32 -65 74 -43 48 24 -29 76 -61 191 -61 222 0 32 -3
36 -25 36 -19 0 -28 -9 -45 -47z"/>
<path d="M9550 4250 c-198 -33 -377 -162 -466 -333 -62 -119 -81 -313 -48
-475 44 -217 227 -397 464 -459 64 -16 209 -23 315 -14 58 5 218 66 274 105
48 33 149 132 176 172 27 39 52 95 72 163 20 67 21 77 23 206 2 162 -33 272
-126 395 -36 47 -108 120 -119 120 -2 0 -24 14 -48 30 -25 17 -48 30 -52 30
-3 0 -31 11 -60 25 -85 39 -282 56 -405 35z m283 -44 c41 -8 98 -26 126 -40
28 -14 55 -26 62 -26 16 0 86 -56 144 -114 l49 -51 -66 -6 c-37 -3 -74 -12
-84 -20 -15 -12 -18 -12 -22 0 -15 45 -97 91 -162 91 -34 0 -82 -31 -116 -75
-24 -31 -27 -45 -26 -100 1 -71 44 -179 101 -249 34 -43 37 -52 19 -59 -7 -2
-9 -8 -5 -13 4 -5 12 -3 16 4 5 9 18 3 44 -21 33 -32 35 -36 21 -55 -10 -15
-11 -23 -3 -28 6 -4 16 1 21 10 10 17 38 22 38 7 0 -5 6 -11 13 -14 6 -2 2 -2
-10 0 -17 2 -23 -1 -23 -16 0 -27 17 -35 28 -15 7 13 18 16 45 11 32 -5 38 -2
63 30 28 36 39 93 22 104 -5 4 18 28 52 55 35 27 78 71 96 98 l33 49 7 -38 c9
-49 -2 -264 -15 -279 -5 -6 -15 -33 -22 -59 -13 -54 -64 -131 -80 -121 -6 3
-17 -3 -25 -15 -17 -24 -54 -28 -54 -6 0 7 7 18 16 23 15 8 15 10 0 15 -9 4
-16 2 -16 -4 0 -12 -25 -39 -35 -39 -4 0 -5 9 -2 20 3 11 1 20 -4 20 -5 0 -9
-6 -9 -14 0 -8 -8 -13 -17 -12 -13 1 -18 -6 -18 -26 1 -30 -9 -37 -19 -13 -3
8 -12 12 -19 9 -9 -3 -17 3 -20 16 -8 30 -31 20 -37 -16 l-6 -29 -12 35 c-11
29 -10 37 2 46 11 7 14 24 11 56 -4 56 -18 84 -45 93 -11 3 -20 13 -20 20 0
12 -6 12 -36 -1 -74 -31 -140 -36 -227 -19 -115 23 -144 10 -162 -72 -5 -24
-1 -44 15 -77 16 -32 20 -48 13 -61 -9 -15 -11 -14 -17 9 -4 15 -11 24 -16 21
-5 -3 -19 -1 -32 6 -17 9 -24 9 -32 -2 -12 -15 -53 -13 -73 3 -9 7 -18 4 -33
-13 l-19 -24 -1 23 c0 28 -16 29 -30 1 -11 -20 -12 -20 -31 -3 -10 9 -19 25
-19 34 0 10 -11 25 -24 34 -13 8 -27 29 -31 46 -4 16 -11 32 -16 35 -5 4 -9
16 -9 29 0 12 -5 27 -10 32 -11 11 -31 210 -25 242 2 9 7 30 10 46 l6 29 35
-51 c18 -28 50 -64 70 -79 20 -15 45 -35 57 -44 17 -14 21 -28 22 -75 0 -58 1
-59 26 -56 15 1 32 -4 39 -13 16 -19 30 -19 30 0 0 13 4 14 21 4 19 -9 26 -6
56 25 20 20 40 36 46 36 6 0 8 3 4 6 -3 3 -2 11 3 18 173 213 207 377 97 471
-52 45 -108 48 -174 10 -23 -14 -43 -29 -43 -33 0 -4 -7 -15 -14 -25 -12 -16
-16 -16 -52 -1 -28 12 -54 14 -93 10 l-53 -6 32 36 c17 20 46 49 64 63 17 14
33 28 36 32 25 31 159 91 255 115 69 17 208 17 298 0z"/>
<path d="M3265 4244 c-11 -2 -44 -9 -74 -15 -29 -6 -84 -24 -122 -40 -37 -16
-76 -29 -86 -29 -10 0 -54 -39 -98 -87 -44 -48 -99 -107 -122 -130 -30 -30
-43 -51 -43 -71 0 -15 -9 -70 -21 -122 -37 -166 -15 -354 57 -491 123 -233
413 -376 691 -339 189 24 296 74 419 195 108 106 151 189 180 352 16 92 13
178 -12 280 -8 38 -16 86 -15 108 0 33 -7 46 -44 85 -100 103 -158 167 -177
193 -11 16 -29 27 -42 27 -13 0 -48 11 -79 24 -30 14 -81 32 -113 41 -58 15
-259 29 -299 19z m250 -49 c87 -19 175 -53 175 -70 0 -7 -16 -33 -35 -59 l-36
-46 -82 6 c-70 6 -86 4 -100 -10 -27 -27 -20 -56 29 -129 l45 -68 -25 -67
c-30 -79 -32 -108 -9 -134 15 -17 15 -18 -8 -19 -13 -1 -44 -2 -69 -4 -25 -1
-71 0 -103 3 -57 5 -57 5 -37 24 26 24 25 34 -5 114 -14 36 -25 73 -25 81 0 7
20 43 45 80 25 36 45 72 45 79 0 8 -10 24 -21 35 -20 20 -29 21 -98 15 -42 -3
-81 -2 -86 2 -30 21 -89 112 -72 112 1 0 27 9 57 21 132 49 284 62 415 34z
m-697 -412 c41 -27 42 -29 42 -84 0 -47 -4 -59 -21 -71 -17 -11 -22 -25 -23
-59 -1 -97 100 -242 227 -326 72 -47 74 -49 69 -83 -3 -18 -11 -44 -17 -57
-11 -21 -14 -22 -26 -7 -10 12 -10 17 0 23 7 5 13 24 14 42 2 29 -2 35 -21 37
-21 3 -23 1 -17 -20 8 -23 8 -23 -14 -4 -16 15 -24 17 -33 8 -8 -8 -8 -15 1
-26 9 -10 9 -16 1 -21 -7 -4 -14 2 -17 15 -4 13 -16 23 -34 27 -16 3 -29 9
-29 13 0 9 -37 20 -44 13 -11 -11 15 -43 35 -43 11 0 18 -4 15 -9 -7 -11 -46
-2 -46 10 0 4 -16 25 -35 46 -41 44 -74 105 -101 183 -36 104 -20 420 20 420
7 0 31 -12 54 -27z m1178 -25 c24 -72 25 -258 1 -345 -33 -117 -105 -228 -150
-228 -15 0 -23 -9 -29 -33 -5 -18 -13 -30 -19 -27 -5 4 -7 15 -4 24 6 21 -3
51 -16 51 -5 0 -11 -11 -15 -25 -6 -25 -6 -25 -33 -7 -24 17 -32 18 -68 14 -6
-1 -9 -11 -5 -24 4 -18 2 -20 -16 -16 -25 7 -41 -10 -22 -22 15 -9 10 -42 -7
-48 -9 -2 -13 8 -13 33 0 20 -7 43 -15 52 -9 8 -13 18 -10 22 4 3 12 -2 19
-12 17 -22 23 -22 37 4 10 19 8 20 -10 14 -40 -12 -20 10 31 35 73 35 176 140
216 221 45 88 52 141 23 179 -15 21 -21 44 -21 79 0 47 2 51 43 80 23 17 47
30 54 31 6 0 19 -24 29 -52z m-911 -189 c124 -12 447 -12 579 0 76 8 105 7
125 -3 14 -7 35 -11 46 -9 20 4 20 4 0 -12 -11 -8 -61 -29 -112 -45 -249 -80
-477 -80 -727 0 -52 17 -105 39 -118 49 l-23 20 41 -6 c23 -3 50 0 60 6 23 13
9 13 129 0z"/>
<path d="M5139 4133 c-19 -8 -43 -28 -53 -44 -9 -16 -26 -34 -37 -39 -10 -6
-47 -36 -82 -67 -79 -71 -154 -114 -184 -107 -16 4 -25 1 -29 -11 -4 -9 -13
-14 -21 -10 -12 4 -14 -1 -11 -25 4 -30 -13 -43 -27 -20 -3 6 -14 10 -23 10
-22 0 60 -60 95 -69 64 -18 167 39 324 180 39 35 77 68 85 72 27 15 166 -38
178 -68 3 -8 4 -103 1 -211 -3 -135 -1 -203 7 -220 14 -30 59 -54 148 -78 36
-9 79 -21 95 -26 57 -17 110 -22 137 -11 27 10 80 85 187 266 70 117 77 125
118 125 26 0 36 5 40 20 4 15 11 18 29 14 36 -9 44 2 27 37 -14 28 -16 29 -32
15 -23 -21 -31 -20 -31 3 0 16 -10 21 -54 26 -61 8 -88 -2 -113 -43 -9 -15
-24 -36 -34 -47 -9 -11 -25 -34 -36 -50 -10 -17 -27 -45 -38 -64 -11 -18 -42
-64 -68 -102 -54 -77 -43 -74 -157 -42 -92 25 -84 5 -90 244 -3 118 -9 222
-14 232 -12 24 -62 49 -190 91 -60 20 -109 36 -110 35 -1 -1 -17 -8 -37 -16z"/>
<path d="M7706 3043 c-2 -2 -1223 -12 -2336 -19 -355 -2 -682 -8 -727 -14
-120 -14 -143 -28 -260 -158 -36 -40 -58 -55 -88 -62 -63 -14 -331 -21 -1080
-26 -822 -6 -828 -6 -867 -44 -21 -22 -28 -38 -28 -69 0 -55 34 -81 105 -81
61 0 191 -39 257 -78 81 -47 188 -127 188 -140 0 -23 -160 -115 -275 -158 -38
-14 -86 -33 -105 -43 -19 -10 -71 -27 -115 -38 -44 -12 -100 -26 -125 -33 -25
-6 -63 -15 -85 -20 -36 -7 -95 -56 -95 -79 0 -4 13 -26 29 -48 l29 -40 144 -9
c176 -11 463 -12 663 -1 83 4 271 9 418 12 147 2 271 6 275 9 4 2 200 7 437
11 253 4 437 11 448 17 13 7 23 6 30 -1 22 -22 90 -12 132 20 54 41 75 87 68
148 -3 28 -1 57 6 69 11 20 17 21 104 16 132 -8 860 -8 1442 0 1346 18 1916
21 1984 10 37 -6 39 -8 45 -51 3 -25 6 -60 6 -77 0 -18 10 -44 24 -61 l24 -30
149 -2 c81 -1 213 -3 293 -5 163 -3 186 2 146 37 -23 20 -24 24 -11 35 8 7 25
10 36 7 14 -4 33 3 53 18 31 24 32 24 44 5 22 -35 75 -19 65 19 -4 16 -23 19
-146 24 -78 4 -189 7 -247 7 -114 0 -141 8 -118 31 45 45 50 65 39 151 -10 73
-7 302 4 336 3 9 147 12 675 12 368 0 670 -4 670 -8 0 -4 -15 -22 -32 -39 -60
-57 -272 -140 -380 -150 l-66 -6 -6 -42 c-12 -74 -7 -78 129 -90 100 -10 257
-51 307 -80 24 -14 61 -34 83 -44 22 -10 47 -26 54 -35 25 -30 -2 -40 -137
-47 -70 -4 -134 -8 -142 -8 -8 -1 1 -10 20 -20 28 -15 35 -24 33 -47 -2 -27
-20 -47 -34 -38 -4 2 -10 0 -14 -6 -3 -5 2 -11 12 -11 10 -1 29 -3 43 -4 24
-2 421 -12 695 -17 l130 -2 3 76 c3 90 2 92 -94 102 -98 11 -201 44 -343 111
-179 85 -285 140 -289 152 -2 6 16 24 40 40 24 15 63 43 88 62 25 18 61 41 80
49 19 9 44 24 55 33 31 25 82 39 149 39 70 0 104 14 125 52 14 24 14 30 -2 63
-31 66 10 63 -951 61 -477 -1 -882 0 -900 2 -26 3 -36 12 -55 47 -13 24 -42
63 -66 87 -99 101 -197 120 -583 116 -150 -2 -274 -4 -276 -5z m91 -145 c488
2 593 -4 593 -29 0 -5 6 -9 13 -9 22 0 73 -62 90 -110 9 -25 21 -72 26 -104
13 -68 15 -273 4 -279 -22 -13 -1572 -28 -2927 -28 -897 0 -1121 3 -1128 13
-7 12 -12 141 -8 255 3 91 65 182 147 215 104 42 112 43 413 44 1111 6 2218
23 2240 34 8 5 19 6 24 3 5 -3 236 -5 513 -5z m-3479 -303 c2 -1 5 -52 7 -111
10 -250 27 -323 78 -344 12 -5 35 -18 52 -29 21 -15 25 -21 15 -25 -49 -19
-1712 -29 -1719 -11 -6 16 94 73 274 155 42 19 141 37 218 39 48 2 75 81 39
114 -16 15 -119 47 -151 47 -33 0 -291 141 -291 159 0 3 271 5 602 3 332 -2
620 0 641 5 33 7 227 6 235 -2z"/>
<path d="M6491 2746 c-7 -8 -7 -25 -2 -47 5 -19 17 -70 26 -114 19 -84 26 -95
62 -95 18 0 24 8 33 43 22 90 31 117 39 117 4 0 18 -33 30 -74 17 -58 27 -75
44 -80 28 -7 43 13 52 67 4 23 15 71 26 106 23 76 23 77 4 85 -30 11 -43 -5
-50 -64 -4 -32 -13 -67 -20 -77 -12 -17 -14 -16 -20 12 -21 90 -33 119 -52
126 -31 11 -51 -9 -64 -66 -18 -75 -18 -75 -28 -75 -6 0 -13 12 -16 28 -23
108 -40 137 -64 108z"/>
<path d="M8113 2753 c-19 -4 -23 -11 -24 -46 0 -23 -2 -77 -3 -119 -3 -85 2
-102 30 -96 14 2 20 13 22 43 4 45 14 55 59 55 48 0 87 38 87 85 0 70 -64 99
-171 78z"/>
<path d="M4846 2708 c-4 -24 -10 -58 -13 -76 -3 -18 -10 -35 -15 -38 -17 -11
-40 22 -44 62 -6 49 -23 84 -41 84 -16 0 -9 -69 12 -115 8 -16 17 -51 20 -77
5 -42 9 -48 29 -48 30 0 43 16 51 65 9 52 27 105 36 105 9 0 49 -117 49 -142
0 -23 31 -39 53 -27 12 7 17 23 17 57 0 26 7 56 15 66 8 11 15 32 15 47 0 15
5 31 10 34 19 12 11 45 -10 45 -27 0 -40 -36 -40 -111 0 -45 -3 -59 -14 -59
-21 0 -29 16 -46 95 -15 67 -17 70 -47 73 -29 3 -31 1 -37 -40z"/>
<path d="M5138 2725 c-42 -28 -54 -67 -45 -138 9 -63 51 -97 120 -97 56 0 73
9 101 50 30 46 15 156 -26 193 -31 26 -105 23 -150 -8z m137 -37 c25 -22 26
-25 15 -76 -12 -56 -37 -82 -78 -82 -34 0 -59 16 -76 50 -13 27 -13 34 1 68 8
20 20 43 25 50 17 21 84 15 113 -10z"/>
<path d="M5400 2626 c0 -69 4 -127 8 -130 4 -2 14 -1 21 3 10 6 10 10 2 16 -9
5 -9 10 -1 20 6 8 11 22 10 32 -4 35 0 43 23 43 26 0 65 -38 84 -82 9 -20 20
-28 38 -28 32 0 32 8 -5 48 -36 39 -37 53 -9 78 36 33 42 52 23 83 -21 35 -27
37 -122 40 l-72 2 0 -125z"/>
<path d="M5675 2727 c-9 -33 -2 -83 10 -79 17 6 23 -32 8 -49 -8 -9 -15 -36
-16 -60 -2 -38 1 -44 18 -44 17 0 21 8 23 45 4 49 25 82 48 73 8 -3 26 -28 40
-55 25 -50 40 -62 69 -56 13 2 8 15 -25 65 -22 34 -40 67 -40 73 0 23 31 69
50 75 26 8 26 35 0 35 -22 0 -80 -52 -100 -89 -6 -13 -19 -21 -28 -19 -13 3
-17 14 -17 53 0 39 -4 50 -17 53 -11 2 -19 -5 -23 -21z"/>
<path d="M6167 2732 c-10 -10 -17 -29 -17 -41 0 -26 51 -81 75 -81 26 0 75
-29 75 -45 0 -9 -12 -21 -26 -27 -22 -10 -32 -9 -65 10 -21 12 -43 22 -48 22
-20 0 -11 -36 14 -60 21 -19 32 -22 80 -18 66 6 84 20 88 73 2 34 -2 41 -32
62 -19 13 -44 23 -57 23 -12 0 -30 7 -39 16 -15 15 -15 18 1 35 22 25 37 24
71 -5 31 -26 53 -24 53 4 0 31 -39 50 -101 50 -41 0 -60 -5 -72 -18z"/>
<path d="M6897 2726 c-59 -55 -58 -158 4 -210 24 -21 41 -26 84 -26 50 0 56 3
84 37 33 40 39 80 21 142 -17 60 -46 81 -110 81 -46 0 -62 -5 -83 -24z m106
-17 c54 -28 71 -83 42 -139 -17 -34 -55 -47 -94 -34 -35 13 -53 50 -46 99 7
43 19 63 50 75 27 11 23 12 48 -1z"/>
<path d="M7170 2748 c0 -2 -2 -58 -4 -125 -3 -115 -2 -123 15 -123 16 0 19 8
19 44 0 50 21 76 48 60 10 -6 33 -32 52 -57 24 -32 42 -47 57 -47 22 0 32 15
15 22 -5 2 -20 20 -34 42 l-26 38 29 40 c22 31 26 44 19 58 -23 43 -40 50
-116 50 -41 0 -74 -1 -74 -2z"/>
<path d="M7460 2720 c-34 -48 -20 -78 47 -100 69 -23 86 -36 72 -62 -6 -10
-22 -23 -36 -29 -22 -8 -30 -6 -54 17 -17 16 -34 24 -43 21 -23 -9 -20 -24 10
-54 22 -22 32 -25 79 -21 42 4 59 10 74 29 25 30 26 43 4 79 -11 20 -30 32
-62 41 -74 20 -106 60 -58 73 37 10 64 7 77 -9 15 -18 40 -20 40 -2 0 26 -18
37 -71 43 -55 6 -56 6 -79 -26z"/>
<path d="M7697 2743 c-3 -5 -4 -18 -2 -29 2 -10 4 -29 4 -41 1 -12 9 -24 21
-28 23 -7 27 -25 5 -25 -8 0 -17 -14 -20 -33 -10 -50 -3 -92 15 -92 11 0 16
15 18 62 l3 61 48 -2 c67 -4 74 -11 68 -61 -6 -42 4 -65 30 -65 10 0 12 28 10
123 -1 67 -6 125 -12 129 -16 12 -25 -2 -25 -42 0 -47 -18 -60 -80 -60 l-42 0
4 53 c3 47 1 52 -19 55 -11 2 -24 -1 -26 -5z"/>
</g>
</svg>
